<?xml version="1.0" encoding="UTF-8" standalone="no"?>
<svg
   xmlns:dc="http://purl.org/dc/elements/1.1/"
   xmlns:cc="http://creativecommons.org/ns#"
   xmlns:rdf="http://www.w3.org/1999/02/22-rdf-syntax-ns#"
   xmlns:svg="http://www.w3.org/2000/svg"
   xmlns="http://www.w3.org/2000/svg"
   viewBox="0 0 640 584.16"
   height="584.16"
   width="640"
   xml:space="preserve"
   id="svg2"
   version="1.1"><metadata
     id="metadata8"><rdf:RDF><cc:Work
         rdf:about=""><dc:format>image/svg+xml</dc:format><dc:type
           rdf:resource="http://purl.org/dc/dcmitype/StillImage" /><dc:title></dc:title></cc:Work></rdf:RDF></metadata><defs
     id="defs6"><clipPath
       id="clipPath18"
       clipPathUnits="userSpaceOnUse"><path
         id="path16"
         d="M 0,438.12 H 480 V 0 H 0 Z" /></clipPath></defs><g
     transform="matrix(1.3333,0,0,-1.3333,0,584.16)"
     id="g10"><g
       id="g12"><g
         clip-path="url(#clipPath18)"
         id="g14"><g
           transform="translate(240,349.12)"
           id="g20"><path
             id="path22"
             style="fill:#47345b;fill-opacity:1;fill-rule:nonzero;stroke:none"
             d="m 0,0 c -53.333,31.2 -106.67,-31.2 -160,0 v -180 c 51.82,-30.31 103.632,27.72 155.448,2.43 l 1.086,26.64 c 0.138,2.83 -2.384,5.04 -5.164,4.54 l -36.96,-6.62 5.024,14.85 c 0.476,1.41 0.02,2.97 -1.14,3.9 l -39.668,31.76 6.802,3.368 c 1.498,0.741 2.271,2.43 1.855,4.049 l -6.709,26.1 20.846,-4.985 c 1.643,-0.393 3.335,0.431 4.038,1.967 l 5.421,11.845 18.906,-20.812 c 2.429,-2.673 6.831,-0.414 6.075,3.118 l -9.401,43.917 13.967,-8.425 c 1.736,-1.048 3.995,-0.424 4.948,1.366 L 0,-13.515 14.626,-40.992 c 0.952,-1.79 3.212,-2.414 4.948,-1.366 l 13.967,8.425 -9.401,-43.917 c -0.756,-3.532 3.646,-5.791 6.075,-3.118 l 18.906,20.812 5.421,-11.845 c 0.703,-1.536 2.395,-2.36 4.038,-1.967 l 20.846,4.985 -6.709,-26.1 c -0.416,-1.619 0.357,-3.308 1.855,-4.049 l 6.801,-3.368 -39.668,-31.76 c -1.16,-0.93 -1.615,-2.49 -1.139,-3.9 l 5.024,-14.85 -36.959,6.62 c -2.781,0.5 -5.303,-1.71 -5.165,-4.54 l 1.086,-26.64 C 56.368,-152.28 108.18,-210.31 160,-180 V 0 C 106.67,-31.2 53.334,31.2 0,0 m 0,-240.11 c -53.333,31.2 -106.67,-31.2 -160,0 v -20 c 53.33,-31.2 106.667,31.2 160,0 53.333,31.2 106.67,-31.2 160,0 v 20 c -53.33,-31.2 -106.667,31.2 -160,0 m 0,40 c -53.333,31.2 -106.67,-31.2 -160,0 v -20 c 53.33,-31.2 106.667,31.2 160,0 53.333,31.2 106.67,-31.2 160,0 v 20 c -53.33,-31.2 -106.667,31.2 -160,0" /></g></g></g></g></svg>