<?xml version="1.0" encoding="UTF-8" standalone="no"?>
<!-- Generator: Adobe Illustrator 16.0.3, SVG Export Plug-In . SVG Version: 6.00 Build 0)  -->

<svg
   xmlns:dc="http://purl.org/dc/elements/1.1/"
   xmlns:cc="http://creativecommons.org/ns#"
   xmlns:rdf="http://www.w3.org/1999/02/22-rdf-syntax-ns#"
   xmlns:svg="http://www.w3.org/2000/svg"
   xmlns="http://www.w3.org/2000/svg"
   xmlns:sodipodi="http://sodipodi.sourceforge.net/DTD/sodipodi-0.dtd"
   xmlns:inkscape="http://www.inkscape.org/namespaces/inkscape"
   version="1.1"
   id="Layer_1"
   x="0px"
   y="0px"
   width="572.89563"
   height="55.152786"
   viewBox="0 0 572.89563 55.152786"
   enable-background="new 0 0 612 792"
   xml:space="preserve"
   inkscape:version="0.48.5 r10040"
   sodipodi:docname="sig-blk-fr.svg"><metadata
   id="metadata3127"><rdf:RDF><cc:Work
       rdf:about=""><dc:format>image/svg+xml</dc:format><dc:type
         rdf:resource="http://purl.org/dc/dcmitype/StillImage" /></cc:Work></rdf:RDF></metadata><defs
   id="defs3125" /><sodipodi:namedview
   pagecolor="#ffffff"
   bordercolor="#666666"
   borderopacity="1"
   objecttolerance="10"
   gridtolerance="10"
   guidetolerance="10"
   inkscape:pageopacity="0"
   inkscape:pageshadow="2"
   inkscape:window-width="1680"
   inkscape:window-height="988"
   id="namedview3123"
   showgrid="false"
   fit-margin-top="0"
   fit-margin-left="0"
   fit-margin-right="0"
   fit-margin-bottom="0"
   inkscape:zoom="1.0113636"
   inkscape:cx="304.99702"
   inkscape:cy="-339.84725"
   inkscape:window-x="-8"
   inkscape:window-y="-8"
   inkscape:window-maximized="1"
   inkscape:current-layer="Layer_1" />
<g
   id="g10"
   transform="matrix(0.67993326,0,0,-0.67993326,-107.44482,278.30416)">
	<g
   id="g12"
   transform="scale(0.1,0.1)">
		<path
   id="path14"
   connector-curvature="0"
   d="m 7665.9,3985.952 c 17.033,-16.374 26.427,-35.009 28.322,-55.842 h -32.603 c -3.619,15.813 -10.83,28.409 -21.659,37.645 -10.829,9.271 -26.011,13.924 -45.529,13.924 -23.813,0 -43.06,-8.502 -57.709,-25.565 -14.65,-17.034 -21.975,-43.146 -21.975,-78.341 0,-28.833 6.606,-52.201 19.806,-70.125 13.199,-17.932 32.905,-26.88 59.103,-26.88 24.101,0 42.456,9.371 55.08,28.201 6.679,9.902 11.634,22.887 14.952,39.023 h 32.603 c -2.887,-25.933 -12.352,-47.685 -28.438,-65.221 -19.274,-21.149 -45.314,-31.713 -78.032,-31.713 -28.194,0 -51.878,8.668 -71.052,25.981 -25.25,22.916 -37.86,58.327 -37.86,106.176 0,36.359 9.508,66.162 28.495,89.429 20.511,25.271 48.79,37.925 84.854,37.925 30.795,0 54.68,-8.215 71.642,-24.617"
   inkscape:connector-curvature="0"
   style="fill:#231f20" />
		<path
   id="path16"
   connector-curvature="0"
   d="m 7831.702,3866.361 c 6.894,0.905 11.548,3.777 13.889,8.696 1.35,2.636 2.025,6.492 2.025,11.455 0,10.226 -3.677,17.637 -10.974,22.233 -7.296,4.589 -17.737,6.915 -31.339,6.915 -15.713,0 -26.858,-4.223 -33.422,-12.646 -3.691,-4.61 -6.104,-11.568 -7.182,-20.775 h -28.079 c 0.546,22.233 7.728,37.673 21.487,46.37 13.773,8.675 29.73,13.034 47.913,13.034 21.056,0 38.147,-4.087 51.304,-12.323 13.041,-8.187 19.591,-20.754 19.591,-37.659 v -103.03 c 0,-3.116 0.632,-5.623 1.896,-7.519 1.293,-1.874 3.964,-2.829 8.058,-2.829 1.35,0 2.858,0.078 4.495,0.258 1.681,0.137 3.447,0.409 5.357,0.747 v -22.341 c -4.711,-1.321 -8.272,-2.19 -10.729,-2.507 -2.442,-0.345 -5.774,-0.495 -9.997,-0.495 -10.313,0 -17.881,3.67 -22.521,11.088 -2.47,3.878 -4.18,9.422 -5.17,16.604 -6.147,-8.158 -14.995,-15.203 -26.485,-21.192 -11.519,-6.004 -24.187,-8.991 -38.061,-8.991 -16.632,0 -30.233,5.07 -40.79,15.188 -10.571,10.111 -15.813,22.786 -15.813,37.996 0,16.661 5.171,29.595 15.555,38.779 10.398,9.135 24.043,14.794 40.891,16.927 l 48.101,6.017 0,0 z m -63.655,-81.401 c 6.392,-5.012 13.946,-7.489 22.693,-7.489 10.6,0 20.912,2.427 30.851,7.339 16.805,8.101 25.192,21.407 25.192,39.942 v 24.244 c -3.691,-2.492 -8.445,-4.531 -14.205,-6.161 -5.803,-1.631 -11.504,-2.772 -17.077,-3.411 l -18.212,-2.212 c -10.915,-1.372 -19.174,-3.62 -24.732,-6.7 -9.364,-5.229 -14.061,-13.608 -14.061,-25.034 0,-8.683 3.159,-15.526 9.551,-20.518"
   inkscape:connector-curvature="0"
   style="fill:#231f20" />
		<path
   id="path18"
   connector-curvature="0"
   d="m 7926.683,3937.104 h 28.48 v -25.458 c 8.503,10.543 17.522,18.098 27.073,22.715 9.509,4.589 20.094,6.88 31.756,6.88 25.537,0 42.801,-8.891 51.764,-26.657 4.911,-9.724 7.382,-23.634 7.382,-41.752 v -115.167 h -30.118 v 113.113 c 0,10.958 -1.608,19.784 -4.884,26.491 -5.414,11.16 -15.21,16.732 -29.429,16.732 -7.21,0 -13.099,-0.718 -17.724,-2.168 -8.345,-2.456 -15.684,-7.361 -22.003,-14.729 -5.07,-5.953 -8.359,-12.064 -9.867,-18.377 -1.537,-6.313 -2.299,-15.317 -2.299,-27.066 v -93.996 h -30.132 v 179.439"
   inkscape:connector-curvature="0"
   style="fill:#231f20" />
		<path
   id="path20"
   connector-curvature="0"
   d="m 8213.489,3866.361 c 6.923,0.905 11.563,3.777 13.903,8.696 1.321,2.636 1.981,6.492 1.981,11.455 0,10.226 -3.647,17.637 -10.944,22.233 -7.296,4.589 -17.752,6.915 -31.339,6.915 -15.713,0 -26.858,-4.223 -33.437,-12.646 -3.705,-4.61 -6.089,-11.568 -7.21,-20.775 h -28.035 c 0.546,22.233 7.698,37.673 21.457,46.37 13.788,8.675 29.76,13.034 47.929,13.034 21.069,0 38.161,-4.087 51.346,-12.323 12.999,-8.187 19.52,-20.754 19.52,-37.659 v -103.03 c 0,-3.116 0.675,-5.623 1.925,-7.519 1.264,-1.874 3.964,-2.829 8.057,-2.829 1.351,0 2.858,0.078 4.524,0.258 1.651,0.137 3.433,0.409 5.3,0.747 v -22.341 c -4.653,-1.321 -8.215,-2.19 -10.686,-2.507 -2.441,-0.345 -5.788,-0.495 -10.025,-0.495 -10.313,0 -17.867,3.67 -22.521,11.088 -2.456,3.878 -4.165,9.422 -5.171,16.604 -6.146,-8.158 -14.966,-15.203 -26.484,-21.192 -11.504,-6.004 -24.158,-8.991 -38.003,-8.991 -16.676,0 -30.248,5.07 -40.848,15.188 -10.528,10.111 -15.799,22.786 -15.799,37.996 0,16.661 5.17,29.595 15.555,38.779 10.384,9.135 24.058,14.794 40.891,16.927 l 48.114,6.017 0,0 z m -63.669,-81.401 c 6.391,-5.012 13.945,-7.489 22.678,-7.489 10.629,0 20.912,2.427 30.895,7.339 16.775,8.101 25.163,21.407 25.163,39.942 v 24.244 c -3.691,-2.492 -8.388,-4.531 -14.204,-6.161 -5.803,-1.631 -11.52,-2.772 -17.092,-3.411 l -18.184,-2.212 c -10.944,-1.372 -19.159,-3.62 -24.703,-6.7 -9.422,-5.229 -14.104,-13.608 -14.104,-25.034 0,-8.683 3.188,-15.526 9.551,-20.518"
   inkscape:connector-curvature="0"
   style="fill:#231f20" />
		<path
   id="path22"
   connector-curvature="0"
   d="m 8407.069,3931.797 c 5.343,-3.297 11.389,-9.085 18.154,-17.379 v 89.938 h 28.883 v -246.692 h -27.217 v 24.848 c -6.98,-10.952 -15.254,-18.88 -24.775,-23.741 -9.509,-4.884 -20.467,-7.318 -32.732,-7.318 -19.85,0 -36.999,8.402 -51.52,25.221 -14.491,16.826 -21.788,39.167 -21.788,67.088 0,26.147 6.665,48.769 19.907,67.914 13.271,19.146 32.187,28.725 56.833,28.725 13.63,-10e-4 25.078,-2.845 34.255,-8.604 l 0,0 z m -67.102,-134.815 c 8.043,-13.02 20.94,-19.511 38.722,-19.511 13.816,0 25.163,6.011 34.011,18.082 8.904,12.036 13.343,29.328 13.343,51.906 0,22.765 -4.553,39.634 -13.745,50.571 -9.163,10.93 -20.452,16.388 -33.953,16.388 -14.995,0 -27.146,-5.831 -36.481,-17.501 -9.35,-11.67 -13.989,-28.833 -13.989,-51.482 0,-19.31 4.034,-35.447 12.092,-48.453"
   inkscape:connector-curvature="0"
   style="fill:#231f20" />
		<path
   id="path24"
   connector-curvature="0"
   d="m 8595.263,3866.361 c 6.908,0.905 11.562,3.777 13.917,8.696 1.321,2.636 1.982,6.492 1.982,11.455 0,10.226 -3.648,17.637 -10.944,22.233 -7.325,4.589 -17.753,6.915 -31.34,6.915 -15.741,0 -26.887,-4.223 -33.45,-12.646 -3.691,-4.61 -6.104,-11.568 -7.21,-20.775 h -28.036 c 0.574,22.233 7.741,37.673 21.516,46.37 13.73,8.675 29.716,13.034 47.87,13.034 21.07,0 38.176,-4.087 51.332,-12.323 13.013,-8.187 19.533,-20.754 19.533,-37.659 v -103.03 c 0,-3.116 0.661,-5.623 1.953,-7.519 1.25,-1.874 3.936,-2.829 8.058,-2.829 1.308,0 2.83,0.078 4.481,0.258 1.681,0.137 3.433,0.409 5.314,0.747 v -22.341 c -4.64,-1.321 -8.201,-2.19 -10.672,-2.507 -2.471,-0.345 -5.745,-0.495 -9.996,-0.495 -10.385,0 -17.896,3.67 -22.521,11.088 -2.456,3.878 -4.194,9.422 -5.214,16.604 -6.147,-8.158 -14.98,-15.203 -26.456,-21.192 -11.505,-6.004 -24.172,-8.991 -38.047,-8.991 -16.66,0 -30.233,5.07 -40.818,15.188 -10.542,10.111 -15.813,22.786 -15.813,37.996 0,16.661 5.199,29.595 15.584,38.779 10.398,9.135 24.014,14.794 40.861,16.927 l 48.116,6.017 0,0 z m -63.67,-81.401 c 6.435,-5.012 13.961,-7.489 22.693,-7.489 10.6,0 20.926,2.427 30.879,7.339 16.776,8.101 25.164,21.407 25.164,39.942 v 24.244 c -3.663,-2.492 -8.417,-4.531 -14.19,-6.161 -5.831,-1.631 -11.49,-2.772 -17.063,-3.411 l -18.212,-2.212 c -10.944,-1.372 -19.175,-3.62 -24.719,-6.7 -9.407,-5.229 -14.104,-13.608 -14.104,-25.034 0,-8.683 3.189,-15.526 9.552,-20.518"
   inkscape:connector-curvature="0"
   style="fill:#231f20" />
		<path
   id="path26"
   connector-curvature="0"
   d="m 8811.262,3837.262 c 0.775,-13.953 3.964,-25.343 9.537,-34.082 10.671,-16.323 29.443,-24.503 56.33,-24.503 12.064,0 22.994,1.824 32.891,5.415 19.159,6.958 28.725,19.461 28.725,37.443 0,13.465 -4.035,23.102 -12.165,28.833 -8.215,5.522 -21.069,10.348 -38.606,14.441 l -32.302,7.476 c -21.084,4.876 -36.021,10.27 -44.782,16.201 -15.139,10.305 -22.722,25.666 -22.722,46.161 0,22.154 7.482,40.381 22.377,54.578 14.908,14.197 36.021,21.343 63.368,21.343 25.12,0 46.477,-6.276 64.071,-18.686 17.565,-12.452 26.355,-32.366 26.355,-59.713 H 8933 c -1.623,13.142 -5.056,23.253 -10.313,30.255 -9.738,12.826 -26.298,19.253 -49.695,19.253 -18.872,0 -32.416,-4.15 -40.675,-12.452 -8.244,-8.251 -12.381,-17.896 -12.381,-28.869 0,-12.071 4.884,-20.955 14.621,-26.499 6.363,-3.612 20.798,-8.064 43.304,-13.465 l 33.45,-7.885 c 16.144,-3.777 28.554,-9.006 37.314,-15.584 15.152,-11.519 22.736,-28.222 22.736,-50.132 0,-27.282 -9.695,-46.815 -29.027,-58.535 -19.332,-11.734 -41.823,-17.616 -67.433,-17.616 -29.859,0 -53.228,7.813 -70.133,23.469 -16.876,15.497 -25.191,36.596 -24.847,63.152 h 31.341"
   inkscape:connector-curvature="0"
   style="fill:#231f20" />
		<path
   id="path28"
   connector-curvature="0"
   d="m 9132.755,3927.28 c 12.696,-9.823 20.309,-26.771 22.865,-50.8 h -29.271 c -1.796,11.109 -5.889,20.352 -12.252,27.72 -6.392,7.332 -16.66,11.037 -30.765,11.037 -19.26,0 -33.02,-9.371 -41.35,-28.122 -5.357,-12.165 -8.043,-27.195 -8.043,-45.041 0,-17.981 3.82,-33.105 11.403,-45.386 7.642,-12.287 19.648,-18.405 35.964,-18.405 12.539,0 22.492,3.806 29.86,11.468 7.311,7.642 12.409,18.133 15.182,31.44 h 29.271 c -3.332,-23.893 -11.691,-41.329 -25.135,-52.359 -13.429,-11.037 -30.592,-16.553 -51.533,-16.553 -23.497,0 -42.255,8.574 -56.215,25.716 -13.989,17.143 -20.984,38.55 -20.984,64.23 0,31.511 7.685,56.014 22.995,73.543 15.339,17.537 34.844,26.299 58.585,26.299 20.224,0 36.727,-4.905 49.423,-14.787"
   inkscape:connector-curvature="0"
   style="fill:#231f20" />
		<path
   id="path30"
   connector-curvature="0"
   d="m 9186.184,4004.357 h 30.104 v -91.202 c 7.167,9.005 13.587,15.317 19.304,19.016 9.709,6.306 21.888,9.473 36.395,9.473 26.14,0 43.777,-9.113 53.084,-27.325 5.027,-9.953 7.555,-23.756 7.555,-41.429 v -115.225 h -30.908 v 113.321 c 0,13.199 -1.724,22.923 -5.084,29.077 -5.501,9.846 -15.828,14.779 -30.938,14.779 -12.524,0 -23.899,-4.309 -34.126,-12.955 -10.154,-8.61 -15.281,-24.912 -15.281,-48.854 v -95.368 h -30.104 v 246.692"
   inkscape:connector-curvature="0"
   style="fill:#231f20" />
		<path
   id="path32"
   connector-curvature="0"
   d="m 9507.117,3919.014 c 15.87,-15.36 23.827,-37.96 23.827,-67.827 0,-28.833 -6.98,-52.661 -21.013,-71.476 -13.975,-18.837 -35.691,-28.259 -65.105,-28.259 -24.531,0 -44.064,8.345 -58.514,24.955 -14.405,16.668 -21.645,39.023 -21.645,67.095 0,30.076 7.612,53.989 22.852,71.813 15.21,17.824 35.647,26.751 61.3,26.751 22.966,0 42.412,-7.684 58.298,-23.052 l 0,0 z m -18.586,-118.887 c 7.368,15.066 11.074,31.893 11.074,50.406 0,16.711 -2.687,30.326 -8.015,40.782 -8.46,16.503 -22.938,24.769 -43.576,24.769 -18.298,0 -31.627,-7.03 -39.914,-21.07 -8.345,-14.068 -12.48,-31.001 -12.48,-50.836 0,-19.081 4.136,-34.952 12.48,-47.67 8.287,-12.711 21.486,-19.037 39.584,-19.037 19.835,0 33.451,7.519 40.847,22.656"
   inkscape:connector-curvature="0"
   style="fill:#231f20" />
		<path
   id="path34"
   connector-curvature="0"
   d="m 9697.996,3919.014 c 15.914,-15.36 23.842,-37.96 23.842,-67.827 0,-28.833 -6.98,-52.661 -20.983,-71.476 -14.032,-18.837 -35.734,-28.259 -65.149,-28.259 -24.56,0 -44.05,8.345 -58.47,24.955 -14.449,16.668 -21.702,39.023 -21.702,67.095 0,30.076 7.641,53.989 22.851,71.813 15.21,17.824 35.677,26.751 61.3,26.751 22.964,0 42.426,-7.684 58.311,-23.052 l 0,0 z m -18.6,-118.887 c 7.368,15.066 11.073,31.893 11.073,50.406 0,16.711 -2.671,30.326 -8.014,40.782 -8.402,16.503 -22.938,24.769 -43.548,24.769 -18.298,0 -31.641,-7.03 -39.928,-21.07 -8.331,-14.068 -12.481,-31.001 -12.481,-50.836 0,-19.081 4.15,-34.952 12.481,-47.67 8.287,-12.711 21.501,-19.037 39.555,-19.037 19.879,0 33.509,7.519 40.862,22.656"
   inkscape:connector-curvature="0"
   style="fill:#231f20" />
		<path
   id="path36"
   connector-curvature="0"
   d="m 9759.641,3757.665 h 30.133 v 246.714 h -30.133 v -246.714 z"
   inkscape:connector-curvature="0"
   style="fill:#231f20" />
		<path
   id="path38"
   connector-curvature="0"
   d="m 7617.986,3532.882 c 15.885,-15.368 23.827,-37.981 23.827,-67.856 0,-28.812 -6.994,-52.646 -20.998,-71.468 -13.975,-18.822 -35.69,-28.23 -65.134,-28.23 -24.532,0 -44.036,8.316 -58.456,24.955 -14.449,16.654 -21.688,39.009 -21.688,67.066 0,30.083 7.641,54.04 22.836,71.835 15.225,17.824 35.648,26.758 61.329,26.758 22.967,0 42.4,-7.706 58.284,-23.06 l 0,0 z m -18.585,-118.923 c 7.382,15.096 11.073,31.929 11.073,50.435 0,16.719 -2.672,30.313 -8,40.797 -8.431,16.496 -22.951,24.754 -43.576,24.754 -18.313,0 -31.627,-7.037 -39.914,-21.084 -8.315,-14.025 -12.495,-30.966 -12.495,-50.829 0,-19.073 4.18,-34.959 12.495,-47.662 8.287,-12.697 21.486,-19.031 39.569,-19.031 19.85,-10e-4 33.494,7.49 40.848,22.62"
   inkscape:connector-curvature="0"
   style="fill:#231f20" />
		<path
   id="path40"
   connector-curvature="0"
   d="m 7692.787,3605.399 c 6.979,10.184 20.538,15.311 40.589,15.311 1.881,0 3.834,-0.086 5.831,-0.215 2.011,-0.165 4.309,-0.345 6.88,-0.61 v -27.634 c -3.146,0.345 -5.387,0.574 -6.794,0.653 -1.379,0.115 -2.686,0.165 -3.906,0.165 -9.106,0 -14.564,-2.348 -16.345,-7.023 -1.767,-4.696 -2.672,-16.675 -2.672,-35.892 h 29.717 v -23.929 H 7716.37 V 3371.54 h -30.118 v 154.686 h -25.178 v 23.929 h 25.178 v 27.964 c 0.416,12.38 2.628,21.5 6.535,27.28"
   inkscape:connector-curvature="0"
   style="fill:#231f20" />
		<path
   id="path42"
   connector-curvature="0"
   d="m 7876.571,3617.801 h 110.161 c 21.803,0 39.411,-6.176 52.854,-18.506 13.443,-12.323 20.15,-29.638 20.15,-51.957 0,-19.182 -5.989,-35.893 -17.996,-50.126 -12.007,-14.233 -30.319,-21.321 -54.908,-21.321 h -76.854 V 3371.54 h -33.407 v 246.261 l 0,0 z m 129.378,-33.658 c -7.324,3.454 -17.35,5.228 -30.104,5.228 h -65.867 v -85.422 h 65.867 c 14.851,0 26.915,3.167 36.165,9.529 9.249,6.385 13.902,17.659 13.902,33.738 10e-4,18.118 -6.648,30.427 -19.963,36.927"
   inkscape:connector-curvature="0"
   style="fill:#231f20" />
		<path
   id="path44"
   connector-curvature="0"
   d="m 8128.592,3551 v -119.095 c 0,-9.185 1.437,-16.653 4.237,-22.456 5.17,-10.722 14.865,-16.079 29.041,-16.079 20.366,0 34.212,9.372 41.565,28.137 3.993,10.032 6.018,23.807 6.018,41.357 v 88.122 h 30.119 v -179.461 h -28.467 l 0.345,26.513 c -3.82,-6.808 -8.618,-12.61 -14.276,-17.343 -11.246,-9.4 -24.934,-14.125 -40.991,-14.125 -25.02,0 -42.083,8.531 -51.16,25.637 -4.911,9.185 -7.382,21.372 -7.382,36.696 v 122.083 h 30.951"
   inkscape:connector-curvature="0"
   style="fill:#231f20" />
		<path
   id="path46"
   connector-curvature="0"
   d="m 8286.883,3618.225 h 29.285 v -88.61 c 6.621,8.539 14.521,15.038 23.713,19.555 9.191,4.503 19.159,6.772 29.945,6.772 22.406,0 40.604,-7.756 54.55,-23.167 13.975,-15.426 20.926,-38.141 20.926,-68.194 0,-28.502 -6.894,-52.179 -20.682,-71.001 -13.817,-18.815 -32.948,-28.252 -57.394,-28.252 -13.701,0 -25.264,3.304 -34.686,9.961 -5.615,3.928 -11.619,10.212 -18.011,18.872 v -22.621 h -27.647 v 246.685 l 0,0 z m 115.303,-206.563 c 8.144,13.041 12.18,30.227 12.18,51.569 0,18.994 -4.036,34.729 -12.18,47.152 -8.129,12.488 -20.079,18.729 -35.906,18.729 -13.76,0 -25.839,-5.127 -36.194,-15.346 -10.369,-10.212 -15.555,-27.053 -15.555,-50.535 0,-16.948 2.141,-30.715 6.392,-41.3 7.985,-19.856 22.779,-29.773 44.524,-29.773 16.401,0 28.61,6.499 36.739,19.504"
   inkscape:connector-curvature="0"
   style="fill:#231f20" />
		<path
   id="path48"
   connector-curvature="0"
   d="m 8481.065,3371.54 h 30.104 v 246.7 h -30.104 v -246.7 z"
   inkscape:connector-curvature="0"
   style="fill:#231f20" />
		<path
   id="path50"
   connector-curvature="0"
   d="m 8556.526,3584.013 h 30.104 v 34.212 h -30.104 v -34.212 z m 0,-212.473 h 30.104 v 178.614 h -30.104 V 3371.54"
   inkscape:connector-curvature="0"
   style="fill:#231f20" />
		<path
   id="path52"
   connector-curvature="0"
   d="m 8750.968,3541.148 c 12.696,-9.853 20.337,-26.801 22.894,-50.801 h -29.285 c -1.795,11.088 -5.903,20.359 -12.28,27.698 -6.362,7.397 -16.632,11.066 -30.735,11.066 -19.275,0 -33.063,-9.386 -41.336,-28.122 -5.372,-12.165 -8.072,-27.217 -8.072,-45.048 0,-17.996 3.807,-33.113 11.419,-45.386 7.626,-12.273 19.604,-18.398 35.979,-18.398 12.523,0 22.478,3.799 29.788,11.454 7.354,7.684 12.409,18.133 15.238,31.439 h 29.285 c -3.36,-23.885 -11.734,-41.343 -25.178,-52.373 -13.4,-11.038 -30.563,-16.51 -51.504,-16.51 -23.497,0 -42.255,8.567 -56.216,25.694 -14.003,17.106 -20.998,38.542 -20.998,64.216 0,31.504 7.655,56.028 23.009,73.558 15.311,17.53 34.83,26.306 58.557,26.306 20.25,0 36.767,-4.941 49.435,-14.793"
   inkscape:connector-curvature="0"
   style="fill:#231f20" />
		<path
   id="path54"
   connector-curvature="0"
   d="m 8925.444,3451.137 c 0.747,-14.003 3.907,-25.343 9.509,-34.09 10.628,-16.344 29.414,-24.466 56.301,-24.466 12.036,0 23.01,1.759 32.905,5.356 19.146,6.959 28.739,19.454 28.739,37.43 0,13.501 -4.064,23.109 -12.15,28.84 -8.244,5.544 -21.128,10.37 -38.636,14.478 l -32.287,7.469 c -21.127,4.861 -36.05,10.27 -44.782,16.208 -15.153,10.27 -22.708,25.651 -22.708,46.169 0,22.168 7.454,40.345 22.334,54.57 14.923,14.197 36.021,21.3 63.368,21.3 25.135,0 46.478,-6.233 64.058,-18.664 17.594,-12.467 26.369,-32.352 26.369,-59.713 h -31.324 c -1.638,13.164 -5.042,23.246 -10.298,30.298 -9.781,12.805 -26.327,19.225 -49.695,19.225 -18.872,0 -32.416,-4.144 -40.689,-12.431 -8.229,-8.272 -12.38,-17.938 -12.38,-28.869 0,-12.122 4.854,-20.969 14.606,-26.542 6.377,-3.583 20.826,-8.05 43.317,-13.429 l 33.437,-7.899 c 16.129,-3.799 28.538,-8.998 37.328,-15.598 15.152,-11.49 22.736,-28.237 22.736,-50.133 0,-27.289 -9.709,-46.801 -29.056,-58.542 -19.317,-11.721 -41.81,-17.602 -67.403,-17.602 -29.846,0 -53.257,7.827 -70.147,23.454 -16.876,15.525 -25.163,36.56 -24.818,63.181 h 31.366"
   inkscape:connector-curvature="0"
   style="fill:#231f20" />
		<path
   id="path56"
   connector-curvature="0"
   d="m 9239.498,3546.161 c 11.906,-5.968 20.955,-13.681 27.159,-23.131 5.989,-9.027 10.011,-19.555 11.993,-31.591 1.81,-8.229 2.7,-21.393 2.7,-39.461 h -130.786 c 0.518,-18.319 4.841,-32.998 12.812,-44.086 7.985,-11.038 20.395,-16.554 37.142,-16.554 15.685,0 28.18,5.149 37.473,15.447 5.271,6.011 8.962,12.955 11.159,20.848 h 29.702 c -0.775,-6.6 -3.39,-13.882 -7.813,-21.91 -4.438,-8.051 -9.35,-14.621 -14.765,-19.741 -9.092,-8.891 -20.381,-14.866 -33.795,-17.982 -7.196,-1.803 -15.354,-2.672 -24.488,-2.672 -22.176,0 -41.02,8.144 -56.445,24.374 -15.454,16.236 -23.167,38.987 -23.167,68.244 0,28.818 7.756,52.2 23.311,70.183 15.569,17.975 35.893,26.966 60.983,26.966 12.667,-10e-4 24.962,-2.996 36.825,-8.934 l 0,0 z m 10.901,-70.27 c -1.25,13.085 -4.064,23.548 -8.518,31.39 -8.201,14.535 -21.889,21.831 -41.105,21.831 -13.73,0 -25.293,-5.02 -34.585,-15.022 -9.364,-10.04 -14.291,-22.736 -14.822,-38.198 h 99.03"
   inkscape:connector-curvature="0"
   style="fill:#231f20" />
		<path
   id="path58"
   connector-curvature="0"
   d="m 9320.417,3551 h 28.452 v -30.851 c 2.327,6.025 8.115,13.336 17.364,21.975 9.221,8.668 19.82,12.97 31.843,12.97 0.545,0 1.508,-0.05 2.857,-0.165 1.379,-0.094 3.677,-0.338 6.923,-0.625 v -31.799 c -1.824,0.316 -3.447,0.553 -4.97,0.668 -1.521,0.101 -3.188,0.172 -4.94,0.172 -15.281,0 -27.002,-4.904 -35.159,-14.692 -8.173,-9.774 -12.266,-21.041 -12.266,-33.767 V 3371.54 h -30.104 V 3551"
   inkscape:connector-curvature="0"
   style="fill:#231f20" />
		<path
   id="path60"
   connector-curvature="0"
   d="m 9448.259,3551 47.87,-146.146 49.939,146.146 h 32.991 l -67.505,-179.461 H 9479.41 L 9413.229,3551 h 35.03"
   inkscape:connector-curvature="0"
   style="fill:#231f20" />
		<path
   id="path62"
   connector-curvature="0"
   d="m 9605.472,3618.225 h 30.133 v -34.212 h -30.133 v 34.212 z m 0,-68.071 h 30.133 V 3371.54 h -30.133 v 178.614"
   inkscape:connector-curvature="0"
   style="fill:#231f20" />
		<path
   id="path64"
   connector-curvature="0"
   d="m 9799.913,3541.148 c 12.711,-9.853 20.366,-26.801 22.938,-50.801 h -29.343 c -1.767,11.088 -5.86,20.359 -12.208,27.698 -6.42,7.397 -16.646,11.066 -30.794,11.066 -19.231,0 -33.02,-9.386 -41.307,-28.122 -5.357,-12.165 -8.087,-27.217 -8.087,-45.048 0,-17.996 3.835,-33.113 11.419,-45.386 7.641,-12.273 19.634,-18.398 35.964,-18.398 12.538,0 22.507,3.799 29.86,11.454 7.324,7.684 12.395,18.133 15.152,31.439 h 29.343 c -3.36,-23.885 -11.734,-41.343 -25.149,-52.373 -13.443,-11.038 -30.635,-16.51 -51.576,-16.51 -23.469,0 -42.212,8.567 -56.187,25.694 -14.003,17.106 -20.998,38.542 -20.998,64.216 0,31.504 7.684,56.028 23.009,73.558 15.354,17.53 34.858,26.306 58.557,26.306 20.252,0 36.725,-4.941 49.407,-14.793"
   inkscape:connector-curvature="0"
   style="fill:#231f20" />
		<path
   id="path66"
   connector-curvature="0"
   d="m 9964.179,3546.161 c 11.893,-5.968 20.912,-13.681 27.131,-23.131 6.019,-9.027 10.011,-19.555 12.008,-31.591 1.795,-8.229 2.671,-21.393 2.671,-39.461 h -130.771 c 0.574,-18.319 4.826,-32.998 12.826,-44.086 7.985,-11.038 20.366,-16.554 37.17,-16.554 15.655,0 28.165,5.149 37.501,15.447 5.242,6.011 8.934,12.955 11.088,20.848 h 29.702 c -0.762,-6.6 -3.375,-13.882 -7.785,-21.91 -4.409,-8.051 -9.335,-14.621 -14.778,-19.741 -9.121,-8.891 -20.323,-14.866 -33.767,-17.982 -7.196,-1.803 -15.354,-2.672 -24.46,-2.672 -22.233,0 -41.092,8.144 -56.531,24.374 -15.439,16.236 -23.138,38.987 -23.138,68.244 0,28.818 7.784,52.2 23.324,70.183 15.541,17.975 35.878,26.966 60.998,26.966 12.667,-10e-4 24.933,-2.996 36.811,-8.934 l 0,0 z m 10.873,-70.27 c -1.222,13.085 -4.051,23.548 -8.475,31.39 -8.215,14.535 -21.902,21.831 -41.077,21.831 -13.816,0 -25.335,-5.02 -34.656,-15.022 -9.322,-10.04 -14.22,-22.736 -14.809,-38.198 h 99.017"
   inkscape:connector-curvature="0"
   style="fill:#231f20" />
		<path
   id="path68"
   connector-curvature="0"
   d="m 1580.226,3281.96 h 378.319 v 811.15 h -378.319 v -811.15 z"
   inkscape:connector-curvature="0"
   style="fill:#e91d24" />
		<path
   id="path70"
   connector-curvature="0"
   d="m 2455.003,3918.935 -54.478,103.698 -55.002,-103.461 c 0,0 -1.522,-4.632 -8.474,-7.604 -4.969,-2.068 -8.998,-2.478 -16.438,1.522 l -50.075,30.054 36.222,-168.919 c 0,0 2.269,-10.083 -6.535,-15.131 -8.732,-5.042 -16.582,1.63 -16.582,1.63 l -73.53,81.206 c 0,0 -19.124,-42.011 -19.124,-41.572 -1.257,-5.042 -5.788,-8.46 -5.788,-8.46 0,0 -6.025,-5.386 -15.95,-2.7 l -76.502,18.341 24.912,-96.919 c 0,0 5.379,-13.846 -8.459,-21.271 l -23.971,-11.777 152.904,-122.291 c 0,0 4.244,-4.071 4.783,-8.711 0.445,-3.763 0.711,-6.226 -0.338,-8.904 l -18.729,-55.555 142.894,25.551 c 13.034,1.63 19.978,-7.512 20.344,-17.185 l -5.551,-143.641 h 38.018 l -6.126,143.231 c 0,0 -0.675,7.949 5.278,13.099 4.639,4.057 8.876,4.94 13.034,4.732 l 144.782,-25.788 -18.248,54.506 c 0,0 -2.298,4.165 -0.639,10.283 1.25,4.323 2.571,7.096 6.937,10.212 l 150.678,120.46 -23.655,11.555 c -6.161,2.305 -12.129,11.647 -9.422,19.899 l 25.522,98.513 -76.668,-18.341 c -4.84,-1.838 -16.223,-1.602 -21.501,10.822 l 0,0 -19.052,41.91 c 0,0 -65.774,-74.779 -72.919,-80.703 -2.908,-2.227 -9.314,-6.644 -17.544,-1.789 -4.094,2.571 -7.648,6.766 -6.19,15.261 l 36.021,168.445 -50.915,-30.636 c -6.198,-3.856 -12.625,-1.932 -12.761,-1.932 -2.775,0.648 -7.307,2.608 -11.163,8.36"
   inkscape:connector-curvature="0"
   style="fill:#e91d24" />
		<path
   id="path72"
   connector-curvature="0"
   d="m 2841.925,3281.96 h 378.261 v 811.15 h -378.261 v -811.15 l 0,0 z"
   inkscape:connector-curvature="0"
   style="fill:#e91d24" />
		<path
   id="path74"
   connector-curvature="0"
   d="m 4147.416,4002.612 h 179.016 v -30.118 H 4179.99 v -74.679 h 135.296 v -28.459 H 4179.99 V 3785.6 h 148.524 v -29.278 h -181.098 v 246.29 z m 135.741,68.072 -44.912,-48.697 h -23.21 l 30.765,48.697 h 37.357"
   inkscape:connector-curvature="0"
   style="fill:#231f20" />
		<path
   id="path76"
   connector-curvature="0"
   d="m 4487.552,3925.966 c 12.667,-9.846 20.28,-26.801 22.879,-50.83 h -29.286 c -1.824,11.139 -5.917,20.359 -12.251,27.749 -6.406,7.332 -16.661,11.038 -30.794,11.038 -19.274,0 -33.02,-9.4 -41.335,-28.144 -5.357,-12.173 -8.014,-27.175 -8.014,-45.049 0,-17.953 3.749,-33.105 11.404,-45.386 7.583,-12.28 19.577,-18.406 35.921,-18.406 12.553,0 22.506,3.828 29.889,11.498 7.311,7.641 12.38,18.097 15.181,31.411 h 29.286 c -3.361,-23.871 -11.777,-41.3 -25.149,-52.331 -13.443,-11.045 -30.636,-16.56 -51.548,-16.56 -23.497,0 -42.211,8.553 -56.215,25.694 -13.989,17.171 -20.955,38.55 -20.955,64.244 0,31.505 7.655,56 22.966,73.529 15.325,17.537 34.844,26.298 58.57,26.298 20.252,0 36.711,-4.938 49.451,-14.755"
   inkscape:connector-curvature="0"
   style="fill:#231f20" />
		<path
   id="path78"
   connector-curvature="0"
   d="m 4670.977,3917.671 c 15.928,-15.36 23.856,-37.996 23.856,-67.806 0,-28.854 -6.98,-52.696 -21.013,-71.505 -14.004,-18.822 -35.706,-28.244 -65.105,-28.244 -24.561,0 -44.051,8.338 -58.514,24.977 -14.435,16.654 -21.673,39.002 -21.673,67.096 0,30.047 7.626,53.989 22.851,71.784 15.21,17.831 35.662,26.75 61.314,26.75 22.966,0 42.399,-7.684 58.298,-23.052 h -0.014 z m -18.585,-118.893 c 7.382,15.081 11.073,31.899 11.073,50.413 0,16.711 -2.671,30.326 -8.015,40.782 -8.431,16.503 -22.937,24.769 -43.547,24.769 -18.27,0 -31.612,-7.023 -39.914,-21.077 -8.345,-14.04 -12.51,-30.987 -12.51,-50.822 0,-19.081 4.165,-34.966 12.51,-47.677 8.302,-12.711 21.486,-19.045 39.569,-19.045 19.864,0 33.437,7.554 40.834,22.657"
   inkscape:connector-curvature="0"
   style="fill:#231f20" />
		<path
   id="path80"
   connector-curvature="0"
   d="m 4732.635,3756.322 h 30.119 v 246.714 h -30.119 v -246.714 z"
   inkscape:connector-curvature="0"
   style="fill:#231f20" />
		<path
   id="path82"
   connector-curvature="0"
   d="m 4918.933,3930.957 c 11.878,-5.967 20.898,-13.688 27.131,-23.131 5.989,-9.034 10.011,-19.54 11.978,-31.583 1.781,-8.237 2.686,-21.422 2.686,-39.476 h -130.8 c 0.56,-18.313 4.854,-33.006 12.84,-44.036 8,-11.095 20.381,-16.61 37.142,-16.61 15.698,0 28.194,5.149 37.515,15.505 5.228,5.968 8.934,12.904 11.146,20.804 h 29.688 c -0.775,-6.557 -3.404,-13.889 -7.813,-21.917 -4.438,-8.058 -9.321,-14.629 -14.793,-19.749 -9.063,-8.869 -20.337,-14.865 -33.738,-17.981 -7.225,-1.774 -15.382,-2.665 -24.503,-2.665 -22.219,0 -41.02,8.13 -56.488,24.374 -15.44,16.258 -23.138,39.023 -23.138,68.258 0,28.826 7.756,52.223 23.311,70.176 15.512,17.976 35.863,26.98 60.983,26.98 12.666,-10e-4 24.946,-2.989 36.853,-8.949 l 0,0 z m 10.873,-70.262 c -1.235,13.099 -4.079,23.548 -8.503,31.39 -8.187,14.55 -21.903,21.839 -41.12,21.839 -13.76,0 -25.293,-5.027 -34.614,-15.053 -9.335,-10.003 -14.233,-22.735 -14.779,-38.176 h 99.016"
   inkscape:connector-curvature="0"
   style="fill:#231f20" />
		<path
   id="path84"
   connector-curvature="0"
   d="m 5192.929,3930.455 c 5.343,-3.297 11.404,-9.085 18.169,-17.379 v 89.968 h 28.883 v -246.722 h -27.231 v 24.84 c -6.966,-10.951 -15.253,-18.879 -24.775,-23.734 -9.522,-4.883 -20.438,-7.311 -32.747,-7.311 -19.806,0 -36.983,8.417 -51.49,25.214 -14.549,16.826 -21.802,39.188 -21.802,67.088 0,26.147 6.621,48.769 19.906,67.936 13.271,19.131 32.201,28.725 56.833,28.725 13.615,-10e-4 25.091,-2.873 34.254,-8.625 l 0,0 z m -67.103,-134.816 c 8.029,-13.02 20.97,-19.519 38.722,-19.519 13.788,0 25.121,6.018 34.04,18.09 8.904,12.071 13.328,29.357 13.328,51.906 0,22.765 -4.567,39.634 -13.759,50.571 -9.149,10.923 -20.481,16.388 -33.939,16.388 -15.038,0 -27.188,-5.803 -36.51,-17.501 -9.293,-11.641 -13.96,-28.805 -13.96,-51.483 0,-19.274 4.007,-35.439 12.078,-48.452"
   inkscape:connector-curvature="0"
   style="fill:#231f20" />
		<path
   id="path86"
   connector-curvature="0"
   d="m 5396.03,3930.957 c 11.864,-5.967 20.941,-13.688 27.16,-23.131 6.018,-9.034 10.011,-19.54 12.021,-31.583 1.781,-8.237 2.657,-21.422 2.657,-39.476 h -130.786 c 0.56,-18.313 4.84,-33.006 12.854,-44.036 8,-11.095 20.352,-16.61 37.127,-16.61 15.655,0 28.18,5.149 37.487,15.505 5.256,5.968 8.948,12.904 11.102,20.804 h 29.745 c -0.775,-6.557 -3.39,-13.889 -7.813,-21.917 -4.423,-8.058 -9.321,-14.629 -14.779,-19.749 -9.106,-8.869 -20.366,-14.865 -33.781,-17.981 -7.196,-1.774 -15.339,-2.665 -24.445,-2.665 -22.205,0 -41.077,8.13 -56.531,24.374 -15.454,16.258 -23.152,39.023 -23.152,68.258 0,28.826 7.784,52.223 23.325,70.176 15.583,17.976 35.877,26.98 60.984,26.98 12.682,-10e-4 24.947,-2.989 36.825,-8.949 l 0,0 z m 10.887,-70.262 c -1.221,13.099 -4.05,23.548 -8.488,31.39 -8.23,14.55 -21.903,21.839 -41.077,21.839 -13.788,0 -25.307,-5.027 -34.643,-15.053 -9.307,-10.003 -14.205,-22.735 -14.808,-38.176 h 99.016"
   inkscape:connector-curvature="0"
   style="fill:#231f20" />
		<path
   id="path88"
   connector-curvature="0"
   d="m 5572.303,3756.322 h 30.104 v 246.714 h -30.104 v -246.714 z"
   inkscape:connector-curvature="0"
   style="fill:#231f20" />
		<path
   id="path90"
   connector-curvature="0"
   d="m 5743.635,3865.033 c 6.923,0.891 11.548,3.792 13.889,8.682 1.336,2.665 2.025,6.499 2.025,11.483 0,10.197 -3.663,17.637 -10.974,22.212 -7.281,4.581 -17.737,6.908 -31.367,6.908 -15.699,0 -26.83,-4.223 -33.394,-12.617 -3.691,-4.646 -6.104,-11.599 -7.225,-20.783 h -28.036 c 0.56,22.212 7.713,37.666 21.487,46.349 13.773,8.703 29.73,13.063 47.913,13.063 21.07,0 38.176,-4.122 51.318,-12.33 13.041,-8.209 19.562,-20.754 19.562,-37.681 v -103.002 c 0,-3.145 0.661,-5.622 1.882,-7.555 1.307,-1.881 3.992,-2.822 8.086,-2.822 1.336,0 2.844,0.079 4.495,0.266 1.666,0.151 3.447,0.402 5.314,0.733 v -22.306 c -4.668,-1.371 -8.259,-2.219 -10.672,-2.506 -2.455,-0.374 -5.788,-0.532 -10.011,-0.532 -10.341,0 -17.881,3.699 -22.549,11.089 -2.441,3.885 -4.165,9.436 -5.156,16.61 -6.133,-8.158 -14.951,-15.211 -26.527,-21.199 -11.462,-5.968 -24.173,-8.978 -38.004,-8.978 -16.632,0 -30.248,5.063 -40.775,15.211 -10.585,10.11 -15.856,22.75 -15.856,37.967 0,16.683 5.214,29.595 15.583,38.786 10.413,9.156 24.029,14.779 40.876,16.948 l 48.116,6.004 z m -63.656,-81.415 c 6.392,-4.983 13.918,-7.497 22.664,-7.497 10.643,0 20.884,2.428 30.865,7.34 16.805,8.136 25.207,21.443 25.207,39.949 v 24.244 c -3.677,-2.478 -8.431,-4.524 -14.205,-6.162 -5.803,-1.63 -11.504,-2.771 -17.091,-3.403 l -18.227,-2.219 c -10.916,-1.344 -19.131,-3.591 -24.704,-6.679 -9.379,-5.257 -14.061,-13.602 -14.061,-25.049 0,-8.689 3.176,-15.505 9.552,-20.524"
   inkscape:connector-curvature="0"
   style="fill:#231f20" />
		<path
   id="path92"
   connector-curvature="0"
   d="m 5947.914,3990.174 c 7.038,10.219 20.567,15.317 40.618,15.317 1.896,0 3.835,-0.079 5.846,-0.208 1.996,-0.137 4.279,-0.345 6.836,-0.61 v -27.634 c -3.102,0.359 -5.343,0.596 -6.75,0.675 -1.407,0.079 -2.743,0.137 -3.921,0.137 -9.12,0 -14.563,-2.349 -16.33,-7.023 -1.781,-4.711 -2.687,-16.661 -2.687,-35.885 h 29.688 v -23.921 h -29.688 v -154.7 h -30.133 v 154.7 h -25.178 v 23.921 h 25.178 v 27.957 c 0.418,12.444 2.629,21.493 6.521,27.274"
   inkscape:connector-curvature="0"
   style="fill:#231f20" />
		<path
   id="path94"
   connector-curvature="0"
   d="m 6159.419,3917.671 c 15.899,-15.36 23.813,-37.996 23.813,-67.806 0,-28.854 -7.009,-52.696 -21.013,-71.505 -14.003,-18.822 -35.705,-28.244 -65.134,-28.244 -24.531,0 -44.021,8.338 -58.485,24.977 -14.448,16.654 -21.615,39.002 -21.615,67.096 0,30.047 7.583,53.989 22.793,71.784 15.239,17.831 35.634,26.75 61.314,26.75 22.995,0 42.428,-7.683 58.327,-23.052 l 0,0 z m -18.614,-118.893 c 7.396,15.081 11.059,31.899 11.059,50.413 0,16.711 -2.686,30.326 -8.014,40.782 -8.402,16.503 -22.908,24.769 -43.533,24.769 -18.313,0 -31.598,-7.023 -39.957,-21.077 -8.287,-14.04 -12.467,-30.987 -12.467,-50.822 0,-19.081 4.18,-34.966 12.467,-47.677 8.359,-12.711 21.573,-19.045 39.612,-19.045 19.848,0 33.465,7.554 40.833,22.657"
   inkscape:connector-curvature="0"
   style="fill:#231f20" />
		<path
   id="path96"
   connector-curvature="0"
   d="m 6220.244,3935.783 h 28.452 v -25.458 c 8.503,10.521 17.537,18.068 27.074,22.687 9.508,4.596 20.107,6.894 31.741,6.894 25.551,0 42.801,-8.897 51.763,-26.671 4.927,-9.71 7.426,-23.655 7.426,-41.745 v -115.167 h -30.119 v 113.113 c 0,10.958 -1.637,19.777 -4.911,26.491 -5.444,11.16 -15.239,16.754 -29.415,16.754 -7.225,0 -13.128,-0.739 -17.724,-2.161 -8.345,-2.492 -15.684,-7.39 -22.004,-14.758 -5.099,-5.953 -8.388,-12.071 -9.896,-18.349 -1.522,-6.333 -2.298,-15.367 -2.298,-27.088 v -94.003 h -30.09 v 179.461"
   inkscape:connector-curvature="0"
   style="fill:#231f20" />
		<path
   id="path98"
   connector-curvature="0"
   d="m 6529.313,3925.966 c 12.683,-9.846 20.295,-26.801 22.895,-50.83 h -29.271 c -1.81,11.139 -5.903,20.359 -12.28,27.749 -6.391,7.332 -16.617,11.038 -30.722,11.038 -19.332,0 -33.077,-9.4 -41.393,-28.144 -5.357,-12.173 -8.029,-27.175 -8.029,-45.049 0,-17.953 3.764,-33.105 11.419,-45.386 7.583,-12.28 19.604,-18.406 35.949,-18.406 12.567,0 22.521,3.828 29.86,11.498 7.296,7.641 12.38,18.097 15.195,31.411 h 29.271 c -3.361,-23.871 -11.749,-41.3 -25.178,-52.331 -13.415,-11.045 -30.578,-16.56 -51.49,-16.56 -23.54,0 -42.24,8.553 -56.229,25.694 -13.961,17.171 -20.97,38.55 -20.97,64.244 0,31.505 7.655,56 22.994,73.529 15.325,17.537 34.844,26.298 58.571,26.298 20.239,0 36.698,-4.938 49.408,-14.755"
   inkscape:connector-curvature="0"
   style="fill:#231f20" />
		<path
   id="path100"
   connector-curvature="0"
   d="m 6588.517,3985.291 h 30.104 v -49.508 h 28.884 v -25.163 h -28.884 v -116.093 c 0,-6.184 2.154,-10.385 6.42,-12.438 2.37,-1.242 6.32,-1.853 11.835,-1.853 1.451,0 3.06,0.058 4.74,0.136 1.68,0.108 3.634,0.338 5.889,0.683 v -24.732 c -3.462,-1.041 -7.038,-1.767 -10.801,-2.227 -3.72,-0.445 -7.756,-0.682 -12.107,-0.682 -14.019,0 -23.541,3.583 -28.567,10.801 -5.027,7.152 -7.512,16.495 -7.512,27.956 v 118.449 h -24.374 v 25.163 h 24.374 v 49.508"
   inkscape:connector-curvature="0"
   style="fill:#231f20" />
		<path
   id="path102"
   connector-curvature="0"
   d="m 6678.096,4003.043 h 30.119 v -34.263 h -30.119 v 34.263 z m 0,-68.1 h 30.119 v -178.621 h -30.119 v 178.621"
   inkscape:connector-curvature="0"
   style="fill:#231f20" />
		<path
   id="path104"
   connector-curvature="0"
   d="m 6884.4,3917.671 c 15.899,-15.36 23.856,-37.996 23.856,-67.806 0,-28.854 -6.994,-52.696 -21.026,-71.505 -13.989,-18.822 -35.691,-28.244 -65.092,-28.244 -24.56,0 -44.064,8.338 -58.514,24.977 -14.448,16.654 -21.644,39.002 -21.644,67.096 0,30.047 7.598,53.989 22.808,71.784 15.195,17.831 35.677,26.75 61.328,26.75 22.967,0 42.414,-7.683 58.284,-23.052 l 0,0 z m -18.599,-118.893 c 7.383,15.081 11.074,31.899 11.074,50.413 0,16.711 -2.672,30.326 -7.986,40.782 -8.431,16.503 -22.951,24.769 -43.59,24.769 -18.284,0 -31.584,-7.023 -39.929,-21.077 -8.287,-14.04 -12.452,-30.987 -12.452,-50.822 0,-19.081 4.165,-34.966 12.452,-47.677 8.345,-12.711 21.544,-19.045 39.598,-19.045 19.849,0 33.466,7.554 40.833,22.657"
   inkscape:connector-curvature="0"
   style="fill:#231f20" />
		<path
   id="path106"
   connector-curvature="0"
   d="m 6945.227,3935.783 h 28.481 v -25.458 c 8.488,10.521 17.508,18.068 27.059,22.687 9.537,4.596 20.137,6.894 31.771,6.894 25.522,0 42.801,-8.897 51.748,-26.671 4.927,-9.71 7.397,-23.655 7.397,-41.745 v -115.167 h -30.119 v 113.113 c 0,10.958 -1.594,19.777 -4.869,26.491 -5.429,11.16 -15.238,16.754 -29.443,16.754 -7.195,0 -13.099,-0.739 -17.723,-2.161 -8.374,-2.492 -15.713,-7.39 -22.032,-14.758 -5.042,-5.953 -8.345,-12.071 -9.839,-18.349 -1.537,-6.333 -2.327,-15.367 -2.327,-27.088 v -94.003 h -30.104 v 179.461"
   inkscape:connector-curvature="0"
   style="fill:#231f20" />
		<path
   id="path108"
   connector-curvature="0"
   d="m 4137.908,3548.839 h 29.314 v -23.21 c 6.032,8.015 12.639,14.219 19.82,18.657 10.184,6.606 22.19,9.91 35.964,9.91 20.424,0 37.76,-7.813 51.979,-23.454 14.233,-15.598 21.372,-37.91 21.372,-66.873 0,-39.188 -10.284,-67.145 -30.794,-83.928 -13.013,-10.643 -28.165,-15.936 -45.415,-15.936 -13.558,0 -24.948,2.916 -34.111,8.775 -5.386,3.304 -11.39,8.978 -18.011,17.027 v -91.023 h -30.104 v 250.054 h -0.014 z m 113.493,-141.026 c 9.335,11.878 14.003,29.637 14.003,53.285 0,14.42 -2.04,26.837 -6.219,37.206 -7.813,19.907 -22.133,29.874 -42.901,29.874 -20.897,0 -35.174,-10.527 -42.901,-31.59 -4.122,-11.275 -6.162,-25.552 -6.162,-42.908 0,-13.968 2.04,-25.889 6.162,-35.677 7.842,-18.687 22.119,-28.008 42.901,-28.008 14.09,0 25.796,5.94 35.117,17.818"
   inkscape:connector-curvature="0"
   style="fill:#231f20" />
		<path
   id="path110"
   connector-curvature="0"
   d="m 4361.404,3549.629 v -119.06 c 0,-9.185 1.408,-16.653 4.237,-22.47 5.17,-10.715 14.865,-16.043 29.026,-16.043 20.353,0 34.212,9.335 41.565,28.107 4.022,10.032 6.004,23.856 6.004,41.379 v 88.086 h 30.133 v -179.433 h -28.481 l 0.345,26.528 c -3.806,-6.844 -8.603,-12.646 -14.262,-17.343 -11.289,-9.422 -24.919,-14.155 -40.977,-14.155 -25.063,0 -42.097,8.532 -51.174,25.638 -4.941,9.185 -7.354,21.407 -7.354,36.718 v 122.032 h 30.937"
   inkscape:connector-curvature="0"
   style="fill:#231f20" />
		<path
   id="path112"
   connector-curvature="0"
   d="m 4519.695,3616.904 h 29.285 v -88.639 c 6.606,8.553 14.506,15.045 23.713,19.562 9.192,4.503 19.159,6.765 29.917,6.765 22.449,0 40.604,-7.734 54.549,-23.159 13.975,-15.411 20.984,-38.147 20.984,-68.201 0,-28.495 -6.952,-52.144 -20.726,-70.966 -13.816,-18.851 -32.934,-28.259 -57.422,-28.259 -13.658,0 -25.235,3.311 -34.657,9.939 -5.616,3.928 -11.605,10.219 -18.025,18.88 v -22.629 h -27.619 v 246.707 l 10e-4,0 z m 115.275,-206.585 c 8.1,13.041 12.193,30.227 12.193,51.569 0,18.994 -4.093,34.729 -12.193,47.188 -8.13,12.459 -20.094,18.707 -35.864,18.707 -13.774,0 -25.853,-5.142 -36.237,-15.36 -10.37,-10.212 -15.555,-27.053 -15.555,-50.535 0,-16.941 2.169,-30.715 6.42,-41.264 7.914,-19.886 22.793,-29.817 44.51,-29.817 16.374,0 28.596,6.499 36.726,19.512"
   inkscape:connector-curvature="0"
   style="fill:#231f20" />
		<path
   id="path114"
   connector-curvature="0"
   d="m 4713.878,3370.197 h 30.104 v 246.707 h -30.104 v -246.707 z"
   inkscape:connector-curvature="0"
   style="fill:#231f20" />
		<path
   id="path116"
   connector-curvature="0"
   d="m 4789.354,3616.904 h 30.075 v -34.27 h -30.075 v 34.27 z m 0,-68.065 h 30.075 v -178.643 h -30.075 v 178.643"
   inkscape:connector-curvature="0"
   style="fill:#231f20" />
		<path
   id="path118"
   connector-curvature="0"
   d="m 4966.66,3542.462 c 5.572,-4.036 10.93,-10.025 16.071,-17.867 v 25.034 h 28.481 v -250.844 h -30.162 v 91.526 c -5.013,-8.043 -11.964,-14.441 -20.826,-19.196 -8.891,-4.754 -19.95,-7.109 -33.192,-7.109 -19.116,0 -36.165,7.505 -51.246,22.499 -15.081,15.002 -22.607,37.882 -22.607,68.597 0,28.811 7.023,52.438 21.142,70.922 14.147,18.478 32.431,27.756 54.837,27.756 14.852,0 27.362,-3.778 37.502,-11.318 l 0,0 z m -75.591,-124.43 c 7.713,-18.715 21.486,-28.036 41.379,-28.036 20.969,0 35.404,9.846 43.346,29.559 4.309,10.851 6.521,24.747 6.521,41.673 0,15.591 -2.413,28.574 -7.196,39.002 -8.144,17.81 -22.506,26.722 -43.016,26.722 -13.084,0 -24.259,-5.717 -33.58,-17.063 -9.321,-11.376 -13.975,-28.927 -13.975,-52.668 0,-15.585 2.184,-28.633 6.521,-39.189"
   inkscape:connector-curvature="0"
   style="fill:#231f20" />
		<path
   id="path120"
   connector-curvature="0"
   d="m 5086.545,3549.629 v -119.06 c 0,-9.185 1.436,-16.653 4.237,-22.47 5.228,-10.715 14.922,-16.043 29.07,-16.043 20.338,0 34.227,9.335 41.565,28.107 4.007,10.032 6.018,23.856 6.018,41.379 v 88.086 h 30.104 v -179.433 h -28.481 l 0.374,26.528 c -3.835,-6.844 -8.604,-12.646 -14.276,-17.343 -11.275,-9.422 -24.919,-14.155 -40.991,-14.155 -25.063,0 -42.111,8.532 -51.16,25.638 -4.926,9.185 -7.368,21.407 -7.368,36.718 v 122.032 h 30.909"
   inkscape:connector-curvature="0"
   style="fill:#231f20" />
		<path
   id="path122"
   connector-curvature="0"
   d="m 5358.142,3544.818 c 11.921,-5.939 20.941,-13.673 27.188,-23.131 5.975,-9.027 9.954,-19.555 12.008,-31.569 1.752,-8.259 2.643,-21.415 2.643,-39.504 h -130.786 c 0.574,-18.299 4.84,-33.013 12.84,-44.036 7.986,-11.066 20.366,-16.582 37.171,-16.582 15.655,0 28.15,5.149 37.501,15.469 5.213,5.982 8.947,12.934 11.116,20.826 h 29.688 c -0.79,-6.571 -3.39,-13.86 -7.813,-21.91 -4.424,-8.058 -9.322,-14.629 -14.793,-19.721 -9.092,-8.89 -20.323,-14.887 -33.738,-18.003 -7.195,-1.76 -15.382,-2.65 -24.459,-2.65 -22.263,0 -41.106,8.122 -56.531,24.353 -15.44,16.229 -23.139,38.987 -23.139,68.251 0,28.812 7.756,52.193 23.311,70.197 15.555,17.975 35.893,26.973 61.013,26.973 12.668,0 24.934,-2.987 36.783,-8.947 v -0.016 z m 10.916,-70.24 c -1.235,13.056 -4.064,23.519 -8.503,31.36 -8.215,14.542 -21.917,21.846 -41.063,21.846 -13.817,0 -25.321,-5.041 -34.686,-15.038 -9.321,-10.039 -14.205,-22.735 -14.765,-38.168 h 99.017"
   inkscape:connector-curvature="0"
   style="fill:#231f20" />
		<path
   id="path124"
   connector-curvature="0"
   d="m 5632.209,3544.308 c 5.343,-3.325 11.361,-9.077 18.169,-17.357 v 89.953 h 28.883 V 3370.197 H 5652 v 24.812 c -6.951,-10.959 -15.238,-18.851 -24.775,-23.698 -9.522,-4.891 -20.424,-7.304 -32.718,-7.304 -19.82,0 -37.013,8.374 -51.519,25.171 -14.492,16.812 -21.774,39.174 -21.774,67.088 0,26.176 6.65,48.804 19.877,67.936 13.271,19.138 32.216,28.732 56.862,28.732 13.617,0 25.036,-2.881 34.256,-8.626 l 0,0 z M 5565.064,3409.5 c 8.072,-13.006 20.983,-19.505 38.736,-19.505 13.817,0 25.164,5.997 34.068,18.054 8.876,12.058 13.329,29.351 13.329,51.907 0,22.771 -4.597,39.641 -13.731,50.563 -9.178,10.937 -20.553,16.431 -33.997,16.431 -14.994,0 -27.159,-5.839 -36.495,-17.508 -9.321,-11.67 -13.975,-28.826 -13.975,-51.49 0,-19.282 4.037,-35.46 12.065,-48.452"
   inkscape:connector-curvature="0"
   style="fill:#231f20" />
		<path
   id="path126"
   connector-curvature="0"
   d="m 5754.622,3549.629 v -119.06 c 0,-9.185 1.379,-16.653 4.194,-22.47 5.213,-10.715 14.908,-16.043 29.099,-16.043 20.309,0 34.169,9.335 41.536,28.107 4.008,10.032 6.019,23.856 6.019,41.379 v 88.086 h 30.118 v -179.433 h -28.481 l 0.345,26.528 c -3.849,-6.844 -8.589,-12.646 -14.29,-17.343 -11.246,-9.422 -24.905,-14.155 -40.948,-14.155 -25.034,0 -42.111,8.532 -51.174,25.638 -4.927,9.185 -7.397,21.407 -7.397,36.718 v 122.032 h 30.98"
   inkscape:connector-curvature="0"
   style="fill:#231f20" />
		<path
   id="path128"
   connector-curvature="0"
   d="m 6188.747,3598.476 c 16.977,-16.388 26.398,-35.009 28.28,-55.849 h -32.618 c -3.591,15.856 -10.814,28.388 -21.645,37.688 -10.814,9.25 -25.996,13.889 -45.529,13.889 -23.813,0 -43.016,-8.524 -57.681,-25.572 -14.707,-17.027 -22.018,-43.139 -22.018,-78.334 0,-28.826 6.607,-52.194 19.807,-70.133 13.228,-17.932 32.904,-26.865 59.088,-26.865 24.114,0 42.484,9.364 55.095,28.158 6.692,9.902 11.705,22.93 14.98,39.059 h 32.574 c -2.858,-25.96 -12.353,-47.69 -28.396,-65.242 -19.303,-21.142 -45.328,-31.677 -78.032,-31.677 -28.236,0 -51.935,8.661 -71.095,25.975 -25.249,22.916 -37.846,58.327 -37.846,106.197 0,36.331 9.494,66.111 28.481,89.379 20.495,25.264 48.818,37.938 84.883,37.938 30.781,0 54.666,-8.215 71.672,-24.611"
   inkscape:connector-curvature="0"
   style="fill:#231f20" />
		<path
   id="path130"
   connector-curvature="0"
   d="m 6354.491,3478.901 c 6.938,0.868 11.563,3.77 13.946,8.689 1.321,2.643 1.968,6.491 1.968,11.482 0,10.19 -3.691,17.595 -10.973,22.227 -7.297,4.553 -17.738,6.879 -31.311,6.879 -15.728,0 -26.873,-4.215 -33.437,-12.617 -3.691,-4.668 -6.075,-11.604 -7.181,-20.769 h -28.094 c 0.604,22.176 7.728,37.616 21.501,46.355 13.773,8.675 29.716,13.049 47.899,13.049 21.056,0 38.161,-4.144 51.36,-12.338 13.027,-8.215 19.548,-20.775 19.548,-37.694 v -103.002 c 0,-3.146 0.646,-5.623 1.91,-7.497 1.264,-1.932 3.964,-2.858 8.058,-2.858 1.336,0 2.829,0.086 4.48,0.237 1.666,0.165 3.447,0.46 5.357,0.769 v -22.334 c -4.682,-1.314 -8.244,-2.162 -10.671,-2.507 -2.471,-0.337 -5.803,-0.502 -10.04,-0.502 -10.355,0 -17.853,3.698 -22.535,11.066 -2.47,3.906 -4.179,9.479 -5.155,16.603 -6.162,-8.107 -15.01,-15.181 -26.499,-21.17 -11.533,-5.997 -24.188,-8.955 -38.032,-8.955 -16.661,0 -30.248,5.041 -40.819,15.159 -10.542,10.111 -15.827,22.779 -15.827,37.989 0,16.646 5.185,29.573 15.598,38.758 10.355,9.163 24.028,14.822 40.891,16.97 l 48.058,6.011 0,0 z m -63.611,-81.408 c 6.362,-5.02 13.902,-7.497 22.664,-7.497 10.614,0 20.897,2.456 30.865,7.34 16.805,8.129 25.178,21.429 25.178,39.935 v 24.244 c -3.72,-2.478 -8.417,-4.51 -14.233,-6.176 -5.788,-1.608 -11.49,-2.75 -17.034,-3.403 l -18.227,-2.169 c -10.915,-1.372 -19.131,-3.627 -24.703,-6.743 -9.407,-5.25 -14.09,-13.565 -14.09,-25.02 0,-8.683 3.231,-15.52 9.58,-20.511"
   inkscape:connector-curvature="0"
   style="fill:#231f20" />
		<path
   id="path132"
   connector-curvature="0"
   d="m 6449.457,3549.629 h 28.51 V 3524.2 c 8.518,10.506 17.537,18.054 27.06,22.656 9.522,4.597 20.137,6.923 31.784,6.923 25.509,0 42.772,-8.904 51.749,-26.671 4.94,-9.717 7.396,-23.634 7.396,-41.738 v -115.174 h -30.118 v 113.113 c 0,10.923 -1.638,19.777 -4.912,26.478 -5.4,11.167 -15.21,16.732 -29.415,16.732 -7.238,0 -13.127,-0.732 -17.724,-2.162 -8.344,-2.463 -15.684,-7.39 -22.003,-14.757 -5.085,-5.939 -8.345,-12.036 -9.867,-18.349 -1.551,-6.327 -2.327,-15.304 -2.327,-27.066 v -93.989 h -30.133 v 179.433"
   inkscape:connector-curvature="0"
   style="fill:#231f20" />
		<path
   id="path134"
   connector-curvature="0"
   d="m 6736.265,3478.901 c 6.951,0.868 11.576,3.77 13.932,8.689 1.307,2.643 1.982,6.491 1.982,11.482 0,10.19 -3.62,17.595 -10.944,22.227 -7.311,4.553 -17.767,6.879 -31.325,6.879 -15.727,0 -26.887,-4.215 -33.465,-12.617 -3.677,-4.668 -6.075,-11.604 -7.195,-20.769 h -28.065 c 0.589,22.176 7.771,37.616 21.501,46.355 13.76,8.675 29.788,13.049 47.899,13.049 21.099,0 38.205,-4.144 51.318,-12.338 13.041,-8.215 19.576,-20.775 19.576,-37.694 v -103.002 c 0,-3.146 0.646,-5.623 1.91,-7.497 1.278,-1.932 3.964,-2.858 8.114,-2.858 1.293,0 2.801,0.086 4.481,0.237 1.638,0.165 3.418,0.46 5.314,0.769 v -22.334 c -4.668,-1.314 -8.23,-2.162 -10.672,-2.507 -2.47,-0.337 -5.816,-0.502 -10.024,-0.502 -10.37,0 -17.867,3.698 -22.535,11.066 -2.471,3.906 -4.18,9.479 -5.186,16.603 -6.161,-8.107 -14.979,-15.181 -26.47,-21.17 -11.505,-5.997 -24.201,-8.955 -38.032,-8.955 -16.689,0 -30.276,5.041 -40.818,15.159 -10.571,10.111 -15.843,22.779 -15.843,37.989 0,16.646 5.214,29.573 15.612,38.758 10.37,9.163 24,14.822 40.876,16.97 l 48.059,6.011 z m -63.626,-81.408 c 6.391,-5.02 13.945,-7.497 22.692,-7.497 10.614,0 20.912,2.456 30.851,7.34 16.79,8.129 25.164,21.429 25.164,39.935 v 24.244 c -3.634,-2.478 -8.388,-4.51 -14.205,-6.176 -5.803,-1.608 -11.447,-2.75 -17.034,-3.403 l -18.226,-2.169 c -10.916,-1.372 -19.188,-3.627 -24.732,-6.743 -9.408,-5.25 -14.076,-13.565 -14.076,-25.02 0,-8.683 3.217,-15.52 9.566,-20.511"
   inkscape:connector-curvature="0"
   style="fill:#231f20" />
		<path
   id="path136"
   connector-curvature="0"
   d="m 6929.901,3544.308 c 5.3,-3.325 11.347,-9.077 18.111,-17.357 v 89.953 h 28.854 v -246.707 h -27.188 v 24.812 c -6.966,-10.959 -15.21,-18.851 -24.761,-23.698 -9.508,-4.891 -20.438,-7.304 -32.762,-7.304 -19.834,0 -36.969,8.374 -51.476,25.171 -14.506,16.812 -21.773,39.174 -21.773,67.088 0,26.176 6.593,48.804 19.893,67.936 13.256,19.138 32.157,28.732 56.804,28.732 13.66,0 25.092,-2.881 34.298,-8.626 l 0,0 z M 6862.742,3409.5 c 8.043,-13.006 20.969,-19.505 38.779,-19.505 13.788,0 25.134,5.997 33.996,18.054 8.891,12.058 13.343,29.351 13.343,51.907 0,22.771 -4.553,39.641 -13.745,50.563 -9.178,10.937 -20.495,16.431 -33.938,16.431 -15.038,0 -27.175,-5.839 -36.524,-17.508 -9.321,-11.67 -13.989,-28.826 -13.989,-51.49 0,-19.282 4.035,-35.46 12.078,-48.452"
   inkscape:connector-curvature="0"
   style="fill:#231f20" />
		<path
   id="path138"
   connector-curvature="0"
   d="m 7118.052,3478.901 c 6.923,0.868 11.576,3.77 13.918,8.689 1.321,2.643 1.996,6.491 1.996,11.482 0,10.19 -3.634,17.595 -10.959,22.227 -7.296,4.553 -17.767,6.879 -31.339,6.879 -15.728,0 -26.873,-4.215 -33.437,-12.617 -3.677,-4.668 -6.075,-11.604 -7.195,-20.769 h -28.064 c 0.56,22.176 7.756,37.616 21.501,46.355 13.759,8.675 29.744,13.049 47.87,13.049 21.084,0 38.233,-4.144 51.36,-12.338 13.027,-8.215 19.548,-20.775 19.548,-37.694 v -103.002 c 0,-3.146 0.646,-5.623 1.925,-7.497 1.278,-1.932 3.936,-2.858 8.086,-2.858 1.308,0 2.801,0.086 4.481,0.237 1.651,0.165 3.403,0.46 5.314,0.769 v -22.334 c -4.683,-1.314 -8.244,-2.162 -10.672,-2.507 -2.456,-0.337 -5.803,-0.502 -9.996,-0.502 -10.385,0 -17.882,3.698 -22.55,11.066 -2.456,3.906 -4.165,9.479 -5.185,16.603 -6.162,-8.107 -14.98,-15.181 -26.456,-21.17 -11.548,-5.997 -24.229,-8.955 -38.061,-8.955 -16.661,0 -30.248,5.041 -40.805,15.159 -10.527,10.111 -15.827,22.779 -15.827,37.989 0,16.646 5.213,29.573 15.598,38.758 10.384,9.163 24,14.822 40.861,16.97 l 48.088,6.011 z m -63.626,-81.408 c 6.377,-5.02 13.917,-7.497 22.635,-7.497 10.6,0 20.941,2.456 30.909,7.34 16.804,8.129 25.163,21.429 25.163,39.935 v 24.244 c -3.619,-2.478 -8.402,-4.51 -14.205,-6.176 -5.802,-1.608 -11.446,-2.75 -17.063,-3.403 l -18.227,-2.169 c -10.93,-1.372 -19.159,-3.627 -24.703,-6.743 -9.379,-5.25 -14.09,-13.565 -14.09,-25.02 10e-4,-8.683 3.218,-15.52 9.581,-20.511"
   inkscape:connector-curvature="0"
   style="fill:#231f20" />
	</g>
</g>
</svg>