<?xml version="1.0" encoding="UTF-8" standalone="no"?>
<!-- Generator: Adobe Illustrator 16.0.3, SVG Export Plug-In . SVG Version: 6.00 Build 0)  -->

<svg
   xmlns:dc="http://purl.org/dc/elements/1.1/"
   xmlns:cc="http://creativecommons.org/ns#"
   xmlns:rdf="http://www.w3.org/1999/02/22-rdf-syntax-ns#"
   xmlns:svg="http://www.w3.org/2000/svg"
   xmlns="http://www.w3.org/2000/svg"
   xmlns:sodipodi="http://sodipodi.sourceforge.net/DTD/sodipodi-0.dtd"
   xmlns:inkscape="http://www.inkscape.org/namespaces/inkscape"
   version="1.1"
   id="Layer_1"
   x="0px"
   y="0px"
   width="609.07336"
   height="55.414154"
   viewBox="0 0 609.07336 55.414154"
   enable-background="new 0 0 612 792"
   xml:space="preserve"
   inkscape:version="0.48.5 r10040"
   sodipodi:docname="sig-blk-en.svg"><metadata
   id="metadata3271"><rdf:RDF><cc:Work
       rdf:about=""><dc:format>image/svg+xml</dc:format><dc:type
         rdf:resource="http://purl.org/dc/dcmitype/StillImage" /></cc:Work></rdf:RDF></metadata><defs
   id="defs3269" /><sodipodi:namedview
   pagecolor="#ffffff"
   bordercolor="#666666"
   borderopacity="1"
   objecttolerance="10"
   gridtolerance="10"
   guidetolerance="10"
   inkscape:pageopacity="0"
   inkscape:pageshadow="2"
   inkscape:window-width="1680"
   inkscape:window-height="988"
   id="namedview3267"
   showgrid="false"
   fit-margin-top="0"
   fit-margin-left="0"
   fit-margin-right="0"
   fit-margin-bottom="0"
   inkscape:zoom="0.84281414"
   inkscape:cx="691.31015"
   inkscape:cy="-166.62637"
   inkscape:window-x="-8"
   inkscape:window-y="-8"
   inkscape:window-maximized="1"
   inkscape:current-layer="Layer_1" />
<g
   id="g10"
   transform="matrix(0.67993326,0,0,-0.67993326,-107.44482,278.30416)">
	<g
   id="g12"
   transform="scale(0.1,0.1)">
		<path
   id="path14"
   connector-curvature="0"
   d="m 4308.177,3963.122 c 17.034,-16.373 26.42,-35.009 28.315,-55.842 h -32.596 c -3.619,15.813 -10.829,28.409 -21.659,37.645 -10.822,9.271 -26.011,13.925 -45.522,13.925 -23.813,0 -43.059,-8.503 -57.716,-25.565 -14.65,-17.034 -21.968,-43.146 -21.968,-78.341 0,-28.833 6.6,-52.201 19.799,-70.126 13.207,-17.932 32.905,-26.879 59.103,-26.879 24.107,0 42.449,9.371 55.081,28.2 6.679,9.903 11.634,22.888 14.944,39.023 h 32.61 c -2.887,-25.932 -12.359,-47.684 -28.445,-65.221 -19.275,-21.148 -45.307,-31.713 -78.025,-31.713 -28.194,0 -51.878,8.668 -71.052,25.982 -25.242,22.916 -37.86,58.326 -37.86,106.176 0,36.359 9.508,66.161 28.496,89.429 20.517,25.271 48.79,37.925 84.854,37.925 30.786,0 54.678,-8.216 71.641,-24.618"
   inkscape:connector-curvature="0"
   style="fill:#231f20" />
		<path
   id="path16"
   connector-curvature="0"
   d="m 4473.986,3843.532 c 6.887,0.904 11.541,3.777 13.881,8.696 1.351,2.636 2.018,6.492 2.018,11.454 0,10.227 -3.677,17.638 -10.966,22.233 -7.289,4.589 -17.738,6.916 -31.339,6.916 -15.705,0 -26.851,-4.223 -33.422,-12.646 -3.698,-4.61 -6.097,-11.569 -7.181,-20.775 h -28.072 c 0.531,22.233 7.713,37.673 21.472,46.369 13.781,8.676 29.731,13.034 47.921,13.034 21.056,0 38.147,-4.086 51.303,-12.323 13.049,-8.187 19.583,-20.754 19.583,-37.658 v -103.03 c 0,-3.117 0.639,-5.623 1.903,-7.519 1.293,-1.875 3.957,-2.83 8.058,-2.83 1.35,0 2.851,0.079 4.488,0.259 1.688,0.137 3.454,0.409 5.364,0.747 v -22.342 c -4.711,-1.321 -8.272,-2.189 -10.729,-2.506 -2.449,-0.345 -5.774,-0.495 -10.004,-0.495 -10.312,0 -17.874,3.669 -22.521,11.088 -2.456,3.878 -4.172,9.422 -5.17,16.603 -6.147,-8.157 -14.98,-15.202 -26.485,-21.191 -11.519,-6.004 -24.187,-8.991 -38.061,-8.991 -16.625,0 -30.227,5.07 -40.79,15.188 -10.563,10.111 -15.806,22.786 -15.806,37.996 0,16.661 5.17,29.595 15.547,38.779 10.398,9.135 24.051,14.793 40.897,16.927 l 48.111,6.017 0,0 z m -63.663,-81.401 c 6.392,-5.013 13.946,-7.49 22.686,-7.49 10.607,0 20.919,2.428 30.865,7.34 16.797,8.101 25.192,21.407 25.192,39.942 v 24.244 c -3.698,-2.492 -8.452,-4.531 -14.212,-6.162 -5.802,-1.63 -11.511,-2.771 -17.077,-3.411 l -18.219,-2.212 c -10.908,-1.371 -19.167,-3.619 -24.718,-6.7 -9.365,-5.228 -14.068,-13.608 -14.068,-25.033 0,-8.683 3.16,-15.526 9.551,-20.518"
   inkscape:connector-curvature="0"
   style="fill:#231f20" />
		<path
   id="path18"
   connector-curvature="0"
   d="m 4568.959,3914.275 h 28.474 v -25.458 c 8.517,10.542 17.529,18.097 27.081,22.715 9.508,4.589 20.101,6.88 31.763,6.88 25.537,0 42.801,-8.891 51.749,-26.657 4.912,-9.724 7.397,-23.634 7.397,-41.752 v -115.167 h -30.126 v 113.112 c 0,10.959 -1.608,19.785 -4.883,26.492 -5.408,11.16 -15.21,16.732 -29.437,16.732 -7.21,0 -13.099,-0.718 -17.724,-2.169 -8.337,-2.456 -15.677,-7.36 -21.989,-14.729 -5.077,-5.953 -8.373,-12.064 -9.874,-18.377 -1.537,-6.313 -2.298,-15.317 -2.298,-27.066 v -93.996 h -30.133 v 179.44"
   inkscape:connector-curvature="0"
   style="fill:#231f20" />
		<path
   id="path20"
   connector-curvature="0"
   d="m 4855.759,3843.532 c 6.923,0.904 11.569,3.777 13.917,8.696 1.321,2.636 1.982,6.492 1.982,11.454 0,10.227 -3.648,17.638 -10.951,22.233 -7.289,4.589 -17.752,6.916 -31.347,6.916 -15.713,0 -26.851,-4.223 -33.437,-12.646 -3.698,-4.61 -6.089,-11.569 -7.21,-20.775 h -28.036 c 0.56,22.233 7.706,37.673 21.465,46.369 13.78,8.676 29.759,13.034 47.928,13.034 21.07,0 38.154,-4.086 51.339,-12.323 13.006,-8.187 19.526,-20.754 19.526,-37.658 v -103.03 c 0,-3.117 0.668,-5.623 1.925,-7.519 1.264,-1.875 3.964,-2.83 8.057,-2.83 1.35,0 2.858,0.079 4.524,0.259 1.652,0.137 3.425,0.409 5.292,0.747 v -22.342 c -4.639,-1.321 -8.208,-2.189 -10.671,-2.506 -2.449,-0.345 -5.795,-0.495 -10.025,-0.495 -10.327,0 -17.882,3.669 -22.521,11.088 -2.464,3.878 -4.173,9.422 -5.178,16.603 -6.155,-8.157 -14.966,-15.202 -26.478,-21.191 -11.512,-6.004 -24.165,-8.991 -38.018,-8.991 -16.668,0 -30.233,5.07 -40.833,15.188 -10.535,10.111 -15.813,22.786 -15.813,37.996 0,16.661 5.178,29.595 15.562,38.779 10.384,9.135 24.05,14.793 40.891,16.927 l 48.11,6.017 0,0 z m -63.662,-81.401 c 6.391,-5.013 13.946,-7.49 22.686,-7.49 10.621,0 20.912,2.428 30.887,7.34 16.775,8.101 25.164,21.407 25.164,39.942 v 24.244 c -3.691,-2.492 -8.388,-4.531 -14.205,-6.162 -5.81,-1.63 -11.512,-2.771 -17.084,-3.411 l -18.19,-2.212 c -10.938,-1.371 -19.167,-3.619 -24.711,-6.7 -9.408,-5.228 -14.097,-13.608 -14.097,-25.033 0,-8.683 3.194,-15.526 9.55,-20.518"
   inkscape:connector-curvature="0"
   style="fill:#231f20" />
		<path
   id="path22"
   connector-curvature="0"
   d="m 5049.353,3908.967 c 5.336,-3.296 11.383,-9.084 18.147,-17.378 v 89.938 h 28.883 v -246.692 h -27.217 v 24.848 c -6.98,-10.952 -15.246,-18.88 -24.775,-23.742 -9.508,-4.883 -20.46,-7.317 -32.74,-7.317 -19.835,0 -36.999,8.402 -51.512,25.221 -14.499,16.826 -21.788,39.167 -21.788,67.088 0,26.147 6.657,48.769 19.914,67.914 13.257,19.145 32.18,28.725 56.826,28.725 13.637,0 25.077,-2.845 34.262,-8.605 l 0,0 z m -67.117,-134.814 c 8.05,-13.02 20.955,-19.512 38.736,-19.512 13.81,0 25.164,6.011 34.003,18.083 8.905,12.036 13.343,29.328 13.343,51.906 0,22.765 -4.553,39.634 -13.737,50.571 -9.164,10.93 -20.46,16.388 -33.954,16.388 -15.001,0 -27.145,-5.832 -36.488,-17.501 -9.35,-11.67 -13.997,-28.833 -13.997,-51.483 0,-19.311 4.044,-35.446 12.094,-48.452"
   inkscape:connector-curvature="0"
   style="fill:#231f20" />
		<path
   id="path24"
   connector-curvature="0"
   d="m 5237.539,3843.532 c 6.908,0.904 11.555,3.777 13.917,8.696 1.314,2.636 1.975,6.492 1.975,11.454 0,10.227 -3.641,17.638 -10.93,22.233 -7.339,4.589 -17.767,6.916 -31.339,6.916 -15.749,0 -26.887,-4.223 -33.458,-12.646 -3.691,-4.61 -6.097,-11.569 -7.21,-20.775 h -28.036 c 0.575,22.233 7.734,37.673 21.515,46.369 13.73,8.676 29.709,13.034 47.871,13.034 21.07,0 38.176,-4.086 51.325,-12.323 13.02,-8.187 19.541,-20.754 19.541,-37.658 v -103.03 c 0,-3.117 0.661,-5.623 1.954,-7.519 1.249,-1.875 3.935,-2.83 8.057,-2.83 1.314,0 2.822,0.079 4.481,0.259 1.673,0.137 3.44,0.409 5.314,0.747 v -22.342 c -4.646,-1.321 -8.208,-2.189 -10.664,-2.506 -2.471,-0.345 -5.76,-0.495 -10.011,-0.495 -10.377,0 -17.882,3.669 -22.521,11.088 -2.449,3.878 -4.179,9.422 -5.207,16.603 -6.147,-8.157 -14.973,-15.202 -26.456,-21.191 -11.512,-6.004 -24.172,-8.991 -38.046,-8.991 -16.661,0 -30.233,5.07 -40.819,15.188 -10.535,10.111 -15.813,22.786 -15.813,37.996 0,16.661 5.2,29.595 15.583,38.779 10.398,9.135 24.021,14.793 40.862,16.927 l 48.115,6.017 0,0 z m -63.662,-81.401 c 6.42,-5.013 13.96,-7.49 22.678,-7.49 10.614,0 20.934,2.428 30.894,7.34 16.761,8.101 25.163,21.407 25.163,39.942 v 24.244 c -3.669,-2.492 -8.423,-4.531 -14.204,-6.162 -5.817,-1.63 -11.483,-2.771 -17.056,-3.411 l -18.219,-2.212 c -10.93,-1.371 -19.167,-3.619 -24.711,-6.7 -9.408,-5.228 -14.104,-13.608 -14.104,-25.033 0,-8.683 3.189,-15.526 9.559,-20.518"
   inkscape:connector-curvature="0"
   style="fill:#231f20" />
		<path
   id="path26"
   connector-curvature="0"
   d="m 5453.546,3814.433 c 0.769,-13.953 3.957,-25.343 9.537,-34.083 10.665,-16.323 29.436,-24.502 56.316,-24.502 12.064,0 23.002,1.823 32.905,5.414 19.16,6.959 28.718,19.462 28.718,37.443 0,13.465 -4.036,23.103 -12.166,28.833 -8.215,5.522 -21.07,10.349 -38.607,14.442 l -32.294,7.476 c -21.099,4.876 -36.036,10.269 -44.783,16.201 -15.153,10.305 -22.729,25.666 -22.729,46.161 0,22.154 7.483,40.381 22.384,54.578 14.901,14.197 36.014,21.343 63.354,21.343 25.127,0 46.492,-6.276 64.079,-18.686 17.559,-12.453 26.355,-32.366 26.355,-59.713 h -31.339 c -1.623,13.142 -5.049,23.253 -10.313,30.255 -9.738,12.826 -26.298,19.253 -49.688,19.253 -18.88,0 -32.424,-4.15 -40.682,-12.452 -8.237,-8.252 -12.388,-17.896 -12.388,-28.869 0,-12.071 4.884,-20.955 14.629,-26.499 6.362,-3.612 20.804,-8.064 43.303,-13.465 l 33.458,-7.885 c 16.129,-3.777 28.539,-9.006 37.3,-15.584 15.16,-11.519 22.743,-28.223 22.743,-50.133 0,-27.281 -9.695,-46.814 -29.02,-58.535 -19.339,-11.733 -41.831,-17.615 -67.439,-17.615 -29.867,0 -53.229,7.813 -70.126,23.469 -16.883,15.497 -25.199,36.596 -24.847,63.152 h 31.34"
   inkscape:connector-curvature="0"
   style="fill:#231f20" />
		<path
   id="path28"
   connector-curvature="0"
   d="m 5775.024,3904.451 c 12.696,-9.824 20.315,-26.771 22.88,-50.801 h -29.278 c -1.796,11.109 -5.889,20.353 -12.252,27.72 -6.398,7.332 -16.66,11.038 -30.765,11.038 -19.267,0 -33.026,-9.372 -41.343,-28.122 -5.364,-12.165 -8.05,-27.195 -8.05,-45.041 0,-17.982 3.82,-33.106 11.396,-45.386 7.641,-12.287 19.655,-18.406 35.979,-18.406 12.531,0 22.478,3.807 29.853,11.469 7.318,7.641 12.409,18.133 15.182,31.439 h 29.278 c -3.347,-23.892 -11.706,-41.328 -25.135,-52.358 -13.437,-11.038 -30.606,-16.553 -51.548,-16.553 -23.482,0 -42.24,8.574 -56.215,25.716 -13.975,17.142 -20.977,38.55 -20.977,64.229 0,31.512 7.677,56.015 22.994,73.544 15.34,17.537 34.852,26.298 58.585,26.298 20.224,0 36.734,-4.904 49.416,-14.786"
   inkscape:connector-curvature="0"
   style="fill:#231f20" />
		<path
   id="path30"
   connector-curvature="0"
   d="m 5828.461,3981.528 h 30.104 v -91.203 c 7.167,9.006 13.587,15.318 19.296,19.017 9.717,6.305 21.889,9.472 36.41,9.472 26.132,0 43.77,-9.112 53.069,-27.324 5.041,-9.954 7.562,-23.756 7.562,-41.43 v -115.224 h -30.915 v 113.321 c 0,13.199 -1.709,22.923 -5.07,29.077 -5.508,9.846 -15.827,14.778 -30.937,14.778 -12.531,0 -23.914,-4.309 -34.126,-12.955 -10.161,-8.61 -15.289,-24.911 -15.289,-48.854 v -95.368 h -30.104 v 246.693"
   inkscape:connector-curvature="0"
   style="fill:#231f20" />
		<path
   id="path32"
   connector-curvature="0"
   d="m 6149.394,3896.185 c 15.87,-15.361 23.827,-37.96 23.827,-67.827 0,-28.833 -6.979,-52.661 -21.013,-71.476 -13.975,-18.837 -35.69,-28.259 -65.105,-28.259 -24.538,0 -44.058,8.345 -58.514,24.955 -14.405,16.668 -21.644,39.023 -21.644,67.095 0,30.075 7.611,53.989 22.851,71.813 15.21,17.824 35.641,26.75 61.3,26.75 22.966,0 42.413,-7.683 58.298,-23.051 l 0,0 z m -18.585,-118.887 c 7.367,15.066 11.073,31.893 11.073,50.405 0,16.711 -2.686,30.327 -8.015,40.783 -8.459,16.503 -22.937,24.769 -43.576,24.769 -18.291,0 -31.619,-7.031 -39.913,-21.07 -8.345,-14.068 -12.489,-31.002 -12.489,-50.837 0,-19.08 4.145,-34.951 12.489,-47.669 8.294,-12.711 21.486,-19.038 39.583,-19.038 19.835,0 33.45,7.52 40.848,22.657"
   inkscape:connector-curvature="0"
   style="fill:#231f20" />
		<path
   id="path34"
   connector-curvature="0"
   d="m 6340.272,3896.185 c 15.914,-15.361 23.842,-37.96 23.842,-67.827 0,-28.833 -6.979,-52.661 -20.983,-71.476 -14.032,-18.837 -35.734,-28.259 -65.148,-28.259 -24.561,0 -44.051,8.345 -58.471,24.955 -14.449,16.668 -21.702,39.023 -21.702,67.095 0,30.075 7.642,53.989 22.852,71.813 15.21,17.824 35.677,26.75 61.299,26.75 22.965,0 42.427,-7.683 58.311,-23.051 l 0,0 z m -18.599,-118.887 c 7.368,15.066 11.074,31.893 11.074,50.405 0,16.711 -2.672,30.327 -8.015,40.783 -8.402,16.503 -22.938,24.769 -43.548,24.769 -18.298,0 -31.641,-7.031 -39.928,-21.07 -8.33,-14.068 -12.481,-31.002 -12.481,-50.837 0,-19.08 4.151,-34.951 12.481,-47.669 8.287,-12.711 21.501,-19.038 39.555,-19.038 19.878,0 33.508,7.52 40.862,22.657"
   inkscape:connector-curvature="0"
   style="fill:#231f20" />
		<path
   id="path36"
   connector-curvature="0"
   d="m 6401.917,3734.835 h 30.133 v 246.714 h -30.133 v -246.714 z"
   inkscape:connector-curvature="0"
   style="fill:#231f20" />
		<path
   id="path38"
   connector-curvature="0"
   d="m 4260.27,3510.053 c 15.871,-15.368 23.82,-37.982 23.82,-67.856 0,-28.812 -6.995,-52.646 -20.998,-71.469 -13.982,-18.822 -35.698,-28.229 -65.127,-28.229 -24.531,0 -44.043,8.316 -58.463,24.955 -14.449,16.653 -21.681,39.009 -21.681,67.066 0,30.082 7.641,54.039 22.822,71.835 15.231,17.823 35.663,26.757 61.329,26.757 22.973,0 42.413,-7.705 58.298,-23.059 l 0,0 z m -18.592,-118.923 c 7.375,15.096 11.073,31.929 11.073,50.435 0,16.718 -2.671,30.313 -8.007,40.797 -8.424,16.495 -22.938,24.754 -43.562,24.754 -18.32,0 -31.633,-7.037 -39.921,-21.084 -8.323,-14.025 -12.496,-30.966 -12.496,-50.829 0,-19.074 4.173,-34.959 12.496,-47.663 8.288,-12.696 21.487,-19.03 39.569,-19.03 19.857,0 33.494,7.49 40.848,22.62"
   inkscape:connector-curvature="0"
   style="fill:#231f20" />
		<path
   id="path40"
   connector-curvature="0"
   d="m 4335.056,3582.57 c 6.995,10.184 20.539,15.311 40.596,15.311 1.881,0 3.835,-0.086 5.824,-0.216 2.025,-0.165 4.323,-0.344 6.887,-0.61 v -27.633 c -3.146,0.345 -5.386,0.574 -6.794,0.653 -1.371,0.114 -2.686,0.165 -3.906,0.165 -9.106,0 -14.571,-2.349 -16.338,-7.023 -1.773,-4.696 -2.671,-16.675 -2.671,-35.893 h 29.709 v -23.928 h -29.709 V 3348.71 h -30.126 v 154.686 h -25.185 v 23.928 h 25.185 v 27.965 c 0.424,12.379 2.636,21.5 6.528,27.281"
   inkscape:connector-curvature="0"
   style="fill:#231f20" />
		<path
   id="path42"
   connector-curvature="0"
   d="m 4518.848,3594.972 h 110.154 c 21.81,0 39.425,-6.176 52.869,-18.507 13.436,-12.322 20.144,-29.637 20.144,-51.956 0,-19.182 -5.997,-35.893 -17.989,-50.126 -12.007,-14.233 -30.327,-21.321 -54.916,-21.321 h -76.861 V 3348.71 h -33.4 v 246.262 l 0,0 z m 129.378,-33.659 c -7.318,3.454 -17.35,5.229 -30.097,5.229 h -65.881 v -85.422 h 65.881 c 14.837,0 26.909,3.167 36.151,9.529 9.256,6.385 13.91,17.659 13.91,33.738 0,18.118 -6.65,30.427 -19.964,36.926"
   inkscape:connector-curvature="0"
   style="fill:#231f20" />
		<path
   id="path44"
   connector-curvature="0"
   d="m 4770.869,3528.171 v -119.095 c 0,-9.185 1.436,-16.653 4.237,-22.456 5.171,-10.722 14.865,-16.079 29.041,-16.079 20.359,0 34.219,9.372 41.559,28.137 4.007,10.032 6.025,23.806 6.025,41.357 v 88.121 h 30.118 v -179.461 h -28.46 l 0.345,26.514 c -3.834,-6.808 -8.617,-12.61 -14.291,-17.343 -11.239,-9.4 -24.926,-14.126 -40.984,-14.126 -25.02,0 -42.082,8.531 -51.167,25.638 -4.904,9.185 -7.368,21.371 -7.368,36.696 v 122.082 h 30.944"
   inkscape:connector-curvature="0"
   style="fill:#231f20" />
		<path
   id="path46"
   connector-curvature="0"
   d="m 4929.166,3595.396 h 29.278 v -88.61 c 6.628,8.538 14.521,15.037 23.713,19.555 9.185,4.503 19.167,6.771 29.946,6.771 22.405,0 40.596,-7.756 54.549,-23.167 13.968,-15.425 20.934,-38.14 20.934,-68.193 0,-28.503 -6.894,-52.18 -20.696,-71.002 -13.817,-18.814 -32.934,-28.251 -57.379,-28.251 -13.702,0 -25.271,3.304 -34.693,9.961 -5.623,3.928 -11.62,10.212 -18.011,18.872 v -22.621 h -27.641 v 246.685 l 0,0 z m 115.304,-206.563 c 8.136,13.041 12.172,30.227 12.172,51.569 0,18.994 -4.036,34.729 -12.172,47.152 -8.137,12.488 -20.094,18.729 -35.907,18.729 -13.759,0 -25.845,-5.127 -36.201,-15.347 -10.377,-10.212 -15.555,-27.052 -15.555,-50.534 0,-16.948 2.147,-30.715 6.391,-41.3 7.979,-19.856 22.779,-29.774 44.517,-29.774 16.403,0 28.625,6.499 36.755,19.505"
   inkscape:connector-curvature="0"
   style="fill:#231f20" />
		<path
   id="path48"
   connector-curvature="0"
   d="m 5123.334,3348.71 h 30.119 v 246.699 h -30.119 V 3348.71 z"
   inkscape:connector-curvature="0"
   style="fill:#231f20" />
		<path
   id="path50"
   connector-curvature="0"
   d="m 5198.803,3561.184 h 30.104 v 34.212 h -30.104 v -34.212 z m 0,-212.474 h 30.104 v 178.613 h -30.104 V 3348.71"
   inkscape:connector-curvature="0"
   style="fill:#231f20" />
		<path
   id="path52"
   connector-curvature="0"
   d="m 5393.237,3518.319 c 12.703,-9.853 20.337,-26.801 22.894,-50.801 h -29.278 c -1.795,11.088 -5.896,20.359 -12.28,27.698 -6.363,7.396 -16.639,11.066 -30.736,11.066 -19.274,0 -33.056,-9.386 -41.343,-28.122 -5.364,-12.165 -8.058,-27.217 -8.058,-45.048 0,-17.997 3.799,-33.113 11.411,-45.387 7.619,-12.272 19.612,-18.398 35.985,-18.398 12.51,0 22.471,3.799 29.781,11.454 7.36,7.685 12.416,18.133 15.238,31.44 h 29.278 c -3.354,-23.885 -11.727,-41.343 -25.17,-52.373 -13.408,-11.038 -30.563,-16.511 -51.504,-16.511 -23.497,0 -42.255,8.567 -56.215,25.695 -13.997,17.105 -20.999,38.542 -20.999,64.215 0,31.505 7.663,56.029 23.009,73.559 15.311,17.529 34.822,26.305 58.563,26.305 20.247,0 36.756,-4.94 49.424,-14.792"
   inkscape:connector-curvature="0"
   style="fill:#231f20" />
		<path
   id="path54"
   connector-curvature="0"
   d="m 5567.714,3428.308 c 0.747,-14.004 3.921,-25.343 9.508,-34.09 10.643,-16.345 29.422,-24.467 56.316,-24.467 12.021,0 23.009,1.76 32.897,5.357 19.152,6.959 28.732,19.454 28.732,37.429 0,13.501 -4.058,23.109 -12.144,28.841 -8.244,5.544 -21.127,10.369 -38.628,14.478 l -32.295,7.468 c -21.127,4.862 -36.043,10.27 -44.782,16.209 -15.152,10.269 -22.707,25.651 -22.707,46.168 0,22.169 7.454,40.345 22.333,54.571 14.923,14.197 36.029,21.3 63.375,21.3 25.135,0 46.478,-6.233 64.05,-18.664 17.594,-12.467 26.377,-32.353 26.377,-59.713 h -31.332 c -1.638,13.163 -5.049,23.246 -10.298,30.298 -9.781,12.805 -26.327,19.225 -49.695,19.225 -18.88,0 -32.417,-4.144 -40.689,-12.431 -8.237,-8.273 -12.38,-17.939 -12.38,-28.869 0,-12.122 4.854,-20.97 14.606,-26.542 6.384,-3.584 20.819,-8.051 43.325,-13.43 l 33.422,-7.899 c 16.136,-3.799 28.546,-8.998 37.335,-15.598 15.16,-11.49 22.736,-28.236 22.736,-50.133 0,-27.289 -9.702,-46.801 -29.056,-58.542 -19.317,-11.72 -41.81,-17.602 -67.396,-17.602 -29.86,0 -53.257,7.828 -70.161,23.454 -16.869,15.526 -25.164,36.561 -24.819,63.182 h 31.37"
   inkscape:connector-curvature="0"
   style="fill:#231f20" />
		<path
   id="path56"
   connector-curvature="0"
   d="m 5881.782,3523.332 c 11.899,-5.968 20.947,-13.681 27.152,-23.131 5.996,-9.027 10.011,-19.555 11.985,-31.591 1.81,-8.23 2.707,-21.394 2.707,-39.462 h -130.793 c 0.531,-18.319 4.848,-32.998 12.812,-44.086 8,-11.037 20.402,-16.553 37.148,-16.553 15.685,0 28.18,5.149 37.473,15.447 5.271,6.011 8.962,12.955 11.152,20.847 h 29.709 c -0.782,-6.6 -3.396,-13.881 -7.813,-21.91 -4.438,-8.05 -9.35,-14.621 -14.757,-19.741 -9.099,-8.891 -20.388,-14.865 -33.803,-17.981 -7.195,-1.803 -15.361,-2.672 -24.481,-2.672 -22.189,0 -41.026,8.144 -56.459,24.373 -15.454,16.237 -23.16,38.987 -23.16,68.244 0,28.819 7.756,52.201 23.318,70.184 15.555,17.975 35.885,26.966 60.983,26.966 12.654,0 24.956,-2.996 36.827,-8.934 l 0,0 z m 10.894,-70.27 c -1.257,13.084 -4.071,23.548 -8.51,31.39 -8.208,14.535 -21.903,21.831 -41.113,21.831 -13.724,0 -25.292,-5.02 -34.592,-15.023 -9.351,-10.039 -14.284,-22.735 -14.815,-38.197 h 99.03"
   inkscape:connector-curvature="0"
   style="fill:#231f20" />
		<path
   id="path58"
   connector-curvature="0"
   d="m 5962.693,3528.171 h 28.452 v -30.851 c 2.327,6.024 8.122,13.336 17.365,21.975 9.213,8.668 19.827,12.97 31.842,12.97 0.546,0 1.501,-0.051 2.858,-0.165 1.371,-0.094 3.669,-0.338 6.93,-0.625 v -31.799 c -1.831,0.315 -3.454,0.553 -4.984,0.668 -1.515,0.101 -3.181,0.172 -4.94,0.172 -15.268,0 -26.987,-4.904 -35.152,-14.692 -8.173,-9.774 -12.266,-21.042 -12.266,-33.767 V 3348.71 h -30.104 v 179.461"
   inkscape:connector-curvature="0"
   style="fill:#231f20" />
		<path
   id="path60"
   connector-curvature="0"
   d="m 6090.535,3528.171 47.871,-146.146 49.938,146.146 h 32.991 L 6153.83,3348.71 h -32.144 l -66.183,179.461 h 35.032"
   inkscape:connector-curvature="0"
   style="fill:#231f20" />
		<path
   id="path62"
   connector-curvature="0"
   d="m 6247.749,3595.396 h 30.133 v -34.212 h -30.133 v 34.212 z m 0,-68.072 h 30.133 V 3348.71 h -30.133 v 178.614"
   inkscape:connector-curvature="0"
   style="fill:#231f20" />
		<path
   id="path64"
   connector-curvature="0"
   d="m 6442.189,3518.319 c 12.711,-9.853 20.366,-26.801 22.938,-50.801 h -29.343 c -1.767,11.088 -5.86,20.359 -12.208,27.698 -6.42,7.396 -16.646,11.066 -30.794,11.066 -19.231,0 -33.02,-9.386 -41.307,-28.122 -5.357,-12.165 -8.086,-27.217 -8.086,-45.048 0,-17.997 3.835,-33.113 11.418,-45.387 7.641,-12.272 19.634,-18.398 35.964,-18.398 12.539,0 22.507,3.799 29.86,11.454 7.324,7.685 12.395,18.133 15.152,31.44 h 29.343 c -3.36,-23.885 -11.734,-41.343 -25.148,-52.373 -13.444,-11.038 -30.636,-16.511 -51.577,-16.511 -23.468,0 -42.211,8.567 -56.187,25.695 -14.003,17.105 -20.998,38.542 -20.998,64.215 0,31.505 7.685,56.029 23.009,73.559 15.354,17.529 34.858,26.305 58.557,26.305 20.252,0 36.726,-4.94 49.407,-14.792"
   inkscape:connector-curvature="0"
   style="fill:#231f20" />
		<path
   id="path66"
   connector-curvature="0"
   d="m 6606.455,3523.332 c 11.893,-5.968 20.912,-13.681 27.131,-23.131 6.019,-9.027 10.011,-19.555 12.008,-31.591 1.795,-8.23 2.671,-21.394 2.671,-39.462 h -130.771 c 0.574,-18.319 4.826,-32.998 12.826,-44.086 7.985,-11.037 20.366,-16.553 37.17,-16.553 15.655,0 28.165,5.149 37.501,15.447 5.242,6.011 8.934,12.955 11.088,20.847 h 29.702 c -0.762,-6.6 -3.375,-13.881 -7.785,-21.91 -4.409,-8.05 -9.335,-14.621 -14.778,-19.741 -9.121,-8.891 -20.323,-14.865 -33.767,-17.981 -7.196,-1.803 -15.354,-2.672 -24.46,-2.672 -22.233,0 -41.092,8.144 -56.531,24.373 -15.439,16.237 -23.138,38.987 -23.138,68.244 0,28.819 7.784,52.201 23.324,70.184 15.541,17.975 35.878,26.966 60.998,26.966 12.668,0 24.933,-2.996 36.811,-8.934 l 0,0 z m 10.873,-70.27 c -1.222,13.084 -4.051,23.548 -8.475,31.39 -8.215,14.535 -21.902,21.831 -41.077,21.831 -13.816,0 -25.335,-5.02 -34.656,-15.023 -9.322,-10.039 -14.22,-22.735 -14.809,-38.197 h 99.017"
   inkscape:connector-curvature="0"
   style="fill:#231f20" />
		<path
   id="path68"
   connector-curvature="0"
   d="m 1580.226,3281.96 h 378.319 v 811.15 h -378.319 v -811.15 z"
   inkscape:connector-curvature="0"
   style="fill:#e91d24" />
		<path
   id="path70"
   connector-curvature="0"
   d="m 2455.003,3918.935 -54.478,103.698 -55.002,-103.461 c 0,0 -1.522,-4.632 -8.474,-7.604 -4.969,-2.068 -8.998,-2.478 -16.438,1.522 l -50.075,30.054 36.222,-168.919 c 0,0 2.269,-10.083 -6.535,-15.131 -8.732,-5.042 -16.582,1.63 -16.582,1.63 l -73.53,81.206 c 0,0 -19.124,-42.011 -19.124,-41.572 -1.257,-5.042 -5.788,-8.46 -5.788,-8.46 0,0 -6.025,-5.386 -15.95,-2.7 l -76.502,18.341 24.912,-96.919 c 0,0 5.379,-13.846 -8.459,-21.271 l -23.971,-11.777 152.904,-122.291 c 0,0 4.244,-4.071 4.783,-8.711 0.445,-3.763 0.711,-6.226 -0.338,-8.904 l -18.729,-55.555 142.894,25.551 c 13.034,1.63 19.978,-7.512 20.344,-17.185 l -5.551,-143.641 h 38.018 l -6.126,143.231 c 0,0 -0.675,7.949 5.278,13.099 4.639,4.057 8.876,4.94 13.034,4.732 l 144.782,-25.788 -18.248,54.506 c 0,0 -2.298,4.165 -0.639,10.283 1.25,4.323 2.571,7.096 6.937,10.212 l 150.678,120.46 -23.655,11.555 c -6.161,2.305 -12.129,11.647 -9.422,19.899 l 25.522,98.513 -76.668,-18.341 c -4.84,-1.838 -16.223,-1.602 -21.501,10.822 l 0,0 -19.052,41.91 c 0,0 -65.774,-74.779 -72.919,-80.703 -2.908,-2.227 -9.314,-6.644 -17.544,-1.789 -4.094,2.571 -7.648,6.766 -6.19,15.261 l 36.021,168.445 -50.915,-30.636 c -6.198,-3.856 -12.625,-1.932 -12.761,-1.932 -2.775,0.648 -7.307,2.608 -11.163,8.36"
   inkscape:connector-curvature="0"
   style="fill:#e91d24" />
		<path
   id="path72"
   connector-curvature="0"
   d="m 2841.925,3281.96 h 378.261 v 811.15 h -378.261 v -811.15 l 0,0 z"
   inkscape:connector-curvature="0"
   style="fill:#e91d24" />
		<path
   id="path74"
   connector-curvature="0"
   d="m 7502.425,3981.944 h 179.016 v -30.118 H 7535 v -74.679 h 135.296 v -28.459 H 7535 v -83.756 h 148.523 v -29.278 h -181.098 v 246.29 z m 135.741,68.072 -44.912,-48.696 h -23.21 l 30.765,48.696 h 37.357"
   inkscape:connector-curvature="0"
   style="fill:#231f20" />
		<path
   id="path76"
   connector-curvature="0"
   d="m 7842.561,3905.298 c 12.668,-9.846 20.279,-26.801 22.879,-50.829 h -29.285 c -1.824,11.138 -5.917,20.358 -12.251,27.748 -6.406,7.332 -16.661,11.038 -30.794,11.038 -19.274,0 -33.02,-9.4 -41.335,-28.144 -5.357,-12.173 -8.015,-27.175 -8.015,-45.049 0,-17.953 3.749,-33.105 11.404,-45.386 7.583,-12.28 19.576,-18.405 35.921,-18.405 12.553,0 22.506,3.827 29.889,11.497 7.311,7.641 12.38,18.097 15.181,31.411 h 29.285 c -3.36,-23.871 -11.777,-41.3 -25.148,-52.33 -13.443,-11.045 -30.636,-16.561 -51.548,-16.561 -23.497,0 -42.212,8.553 -56.215,25.694 -13.989,17.171 -20.955,38.55 -20.955,64.244 0,31.505 7.655,56 22.966,73.529 15.325,17.537 34.844,26.299 58.57,26.299 20.251,0 36.71,-4.939 49.451,-14.756"
   inkscape:connector-curvature="0"
   style="fill:#231f20" />
		<path
   id="path78"
   connector-curvature="0"
   d="m 8025.985,3897.003 c 15.928,-15.36 23.856,-37.996 23.856,-67.806 0,-28.854 -6.98,-52.696 -21.013,-71.504 -14.004,-18.822 -35.705,-28.244 -65.105,-28.244 -24.561,0 -44.051,8.337 -58.514,24.977 -14.435,16.653 -21.673,39.001 -21.673,67.095 0,30.047 7.626,53.989 22.851,71.784 15.21,17.831 35.662,26.751 61.314,26.751 22.966,0 42.398,-7.685 58.298,-23.053 h -0.014 z M 8007.4,3778.11 c 7.382,15.081 11.073,31.899 11.073,50.413 0,16.711 -2.672,30.326 -8.015,40.782 -8.431,16.503 -22.937,24.769 -43.547,24.769 -18.27,0 -31.612,-7.023 -39.914,-21.077 -8.345,-14.039 -12.51,-30.987 -12.51,-50.822 0,-19.081 4.165,-34.966 12.51,-47.677 8.302,-12.711 21.486,-19.045 39.569,-19.045 19.865,0 33.437,7.554 40.834,22.657"
   inkscape:connector-curvature="0"
   style="fill:#231f20" />
		<path
   id="path80"
   connector-curvature="0"
   d="m 8087.645,3735.654 h 30.118 v 246.714 h -30.118 v -246.714 z"
   inkscape:connector-curvature="0"
   style="fill:#231f20" />
		<path
   id="path82"
   connector-curvature="0"
   d="m 8273.941,3910.29 c 11.878,-5.968 20.897,-13.688 27.131,-23.132 5.989,-9.033 10.011,-19.54 11.979,-31.583 1.781,-8.237 2.687,-21.422 2.687,-39.476 h -130.801 c 0.561,-18.313 4.854,-33.006 12.84,-44.036 8,-11.095 20.381,-16.61 37.143,-16.61 15.698,0 28.193,5.149 37.515,15.505 5.229,5.968 8.934,12.904 11.146,20.804 h 29.688 c -0.775,-6.557 -3.404,-13.889 -7.813,-21.917 -4.438,-8.058 -9.321,-14.628 -14.793,-19.749 -9.063,-8.868 -20.338,-14.865 -33.738,-17.981 -7.225,-1.774 -15.382,-2.664 -24.503,-2.664 -22.219,0 -41.02,8.129 -56.487,24.373 -15.44,16.259 -23.139,39.023 -23.139,68.259 0,28.825 7.756,52.222 23.311,70.176 15.512,17.975 35.863,26.979 60.983,26.979 12.665,-10e-4 24.945,-2.988 36.851,-8.948 l 0,0 z m 10.873,-70.263 c -1.235,13.099 -4.079,23.548 -8.503,31.39 -8.187,14.55 -21.903,21.839 -41.12,21.839 -13.76,0 -25.293,-5.027 -34.614,-15.053 -9.335,-10.003 -14.233,-22.735 -14.779,-38.176 h 99.016"
   inkscape:connector-curvature="0"
   style="fill:#231f20" />
		<path
   id="path84"
   connector-curvature="0"
   d="m 8547.938,3909.787 c 5.343,-3.297 11.404,-9.085 18.169,-17.379 v 89.968 h 28.883 v -246.722 h -27.231 v 24.84 c -6.966,-10.951 -15.253,-18.879 -24.775,-23.733 -9.522,-4.884 -20.438,-7.311 -32.747,-7.311 -19.806,0 -36.983,8.416 -51.489,25.213 -14.55,16.826 -21.803,39.188 -21.803,67.088 0,26.147 6.621,48.769 19.906,67.936 13.271,19.131 32.201,28.726 56.833,28.726 13.615,0 25.09,-2.874 34.254,-8.626 l 0,0 z m -67.103,-134.816 c 8.029,-13.02 20.97,-19.519 38.722,-19.519 13.788,0 25.12,6.019 34.04,18.09 8.904,12.072 13.328,29.357 13.328,51.906 0,22.765 -4.567,39.634 -13.76,50.571 -9.148,10.923 -20.48,16.388 -33.938,16.388 -15.037,0 -27.188,-5.803 -36.51,-17.501 -9.293,-11.641 -13.96,-28.804 -13.96,-51.482 0,-19.275 4.007,-35.44 12.078,-48.453"
   inkscape:connector-curvature="0"
   style="fill:#231f20" />
		<path
   id="path86"
   connector-curvature="0"
   d="m 8751.039,3910.29 c 11.864,-5.968 20.941,-13.688 27.16,-23.132 6.018,-9.033 10.011,-19.54 12.021,-31.583 1.781,-8.237 2.657,-21.422 2.657,-39.476 h -130.786 c 0.56,-18.313 4.84,-33.006 12.854,-44.036 8,-11.095 20.352,-16.61 37.127,-16.61 15.655,0 28.18,5.149 37.487,15.505 5.256,5.968 8.947,12.904 11.102,20.804 h 29.745 c -0.775,-6.557 -3.39,-13.889 -7.813,-21.917 -4.423,-8.058 -9.321,-14.628 -14.778,-19.749 -9.106,-8.868 -20.366,-14.865 -33.781,-17.981 -7.195,-1.774 -15.34,-2.664 -24.445,-2.664 -22.205,0 -41.077,8.129 -56.531,24.373 -15.454,16.259 -23.152,39.023 -23.152,68.259 0,28.825 7.784,52.222 23.324,70.176 15.584,17.975 35.878,26.979 60.984,26.979 12.682,-10e-4 24.947,-2.988 36.825,-8.948 l 0,0 z m 10.888,-70.263 c -1.222,13.099 -4.051,23.548 -8.489,31.39 -8.229,14.55 -21.902,21.839 -41.076,21.839 -13.789,0 -25.308,-5.027 -34.644,-15.053 -9.307,-10.003 -14.204,-22.735 -14.808,-38.176 h 99.017"
   inkscape:connector-curvature="0"
   style="fill:#231f20" />
		<path
   id="path88"
   connector-curvature="0"
   d="m 8927.312,3735.654 h 30.104 v 246.714 h -30.104 v -246.714 z"
   inkscape:connector-curvature="0"
   style="fill:#231f20" />
		<path
   id="path90"
   connector-curvature="0"
   d="m 9098.644,3844.365 c 6.923,0.891 11.548,3.792 13.889,8.683 1.336,2.664 2.025,6.499 2.025,11.482 0,10.197 -3.663,17.638 -10.974,22.212 -7.281,4.582 -17.737,6.908 -31.367,6.908 -15.698,0 -26.83,-4.223 -33.394,-12.617 -3.691,-4.646 -6.104,-11.598 -7.225,-20.783 h -28.035 c 0.56,22.212 7.712,37.666 21.486,46.349 13.773,8.703 29.73,13.063 47.913,13.063 21.07,0 38.177,-4.122 51.318,-12.33 13.041,-8.208 19.562,-20.754 19.562,-37.681 V 3766.65 c 0,-3.146 0.661,-5.623 1.882,-7.555 1.307,-1.882 3.992,-2.822 8.086,-2.822 1.336,0 2.844,0.078 4.495,0.266 1.666,0.15 3.447,0.401 5.314,0.732 v -22.306 c -4.668,-1.371 -8.259,-2.219 -10.671,-2.506 -2.456,-0.374 -5.789,-0.531 -10.011,-0.531 -10.342,0 -17.882,3.698 -22.55,11.088 -2.441,3.885 -4.165,9.436 -5.156,16.61 -6.133,-8.158 -14.951,-15.21 -26.527,-21.199 -11.462,-5.968 -24.173,-8.977 -38.004,-8.977 -16.632,0 -30.248,5.063 -40.775,15.21 -10.585,10.111 -15.856,22.75 -15.856,37.967 0,16.683 5.214,29.595 15.584,38.787 10.412,9.156 24.028,14.778 40.876,16.947 l 48.115,6.004 z m -63.656,-81.415 c 6.392,-4.983 13.918,-7.497 22.664,-7.497 10.644,0 20.884,2.428 30.865,7.34 16.805,8.136 25.207,21.443 25.207,39.949 v 24.244 c -3.677,-2.478 -8.431,-4.524 -14.205,-6.161 -5.802,-1.631 -11.504,-2.772 -17.091,-3.404 l -18.227,-2.219 c -10.916,-1.343 -19.131,-3.591 -24.704,-6.679 -9.379,-5.257 -14.061,-13.602 -14.061,-25.049 0,-8.689 3.175,-15.504 9.552,-20.524"
   inkscape:connector-curvature="0"
   style="fill:#231f20" />
		<path
   id="path92"
   connector-curvature="0"
   d="m 9302.923,3969.506 c 7.038,10.219 20.567,15.317 40.618,15.317 1.896,0 3.835,-0.079 5.846,-0.208 1.996,-0.137 4.279,-0.345 6.836,-0.61 v -27.634 c -3.102,0.359 -5.343,0.596 -6.75,0.675 -1.407,0.079 -2.743,0.137 -3.921,0.137 -9.12,0 -14.563,-2.349 -16.33,-7.023 -1.781,-4.711 -2.687,-16.66 -2.687,-35.885 h 29.688 v -23.921 h -29.688 v -154.7 h -30.133 v 154.7 h -25.178 v 23.921 h 25.178 v 27.957 c 0.417,12.445 2.629,21.493 6.521,27.274"
   inkscape:connector-curvature="0"
   style="fill:#231f20" />
		<path
   id="path94"
   connector-curvature="0"
   d="m 9514.428,3897.003 c 15.899,-15.36 23.813,-37.996 23.813,-67.806 0,-28.854 -7.009,-52.696 -21.012,-71.504 -14.004,-18.822 -35.706,-28.244 -65.135,-28.244 -24.531,0 -44.021,8.337 -58.484,24.977 -14.449,16.653 -21.616,39.001 -21.616,67.095 0,30.047 7.583,53.989 22.794,71.784 15.238,17.831 35.633,26.751 61.313,26.751 22.995,0 42.427,-7.684 58.327,-23.053 l 0,0 z m -18.615,-118.893 c 7.396,15.081 11.06,31.899 11.06,50.413 0,16.711 -2.687,30.326 -8.015,40.782 -8.402,16.503 -22.908,24.769 -43.533,24.769 -18.313,0 -31.598,-7.023 -39.957,-21.077 -8.287,-14.039 -12.467,-30.987 -12.467,-50.822 0,-19.081 4.18,-34.966 12.467,-47.677 8.359,-12.711 21.573,-19.045 39.612,-19.045 19.849,0 33.465,7.554 40.833,22.657"
   inkscape:connector-curvature="0"
   style="fill:#231f20" />
		<path
   id="path96"
   connector-curvature="0"
   d="m 9575.253,3915.115 h 28.452 v -25.458 c 8.503,10.521 17.537,18.068 27.074,22.687 9.508,4.596 20.107,6.894 31.741,6.894 25.551,0 42.801,-8.897 51.763,-26.671 4.927,-9.709 7.426,-23.655 7.426,-41.745 v -115.167 h -30.119 v 113.113 c 0,10.958 -1.637,19.777 -4.911,26.491 -5.443,11.16 -15.239,16.754 -29.415,16.754 -7.225,0 -13.128,-0.739 -17.724,-2.161 -8.345,-2.492 -15.684,-7.39 -22.003,-14.758 -5.1,-5.953 -8.389,-12.071 -9.896,-18.348 -1.522,-6.334 -2.298,-15.368 -2.298,-27.088 v -94.004 h -30.09 v 179.461"
   inkscape:connector-curvature="0"
   style="fill:#231f20" />
		<path
   id="path98"
   connector-curvature="0"
   d="m 9884.322,3905.298 c 12.683,-9.846 20.295,-26.801 22.895,-50.829 h -29.271 c -1.81,11.138 -5.902,20.358 -12.279,27.748 -6.392,7.332 -16.618,11.038 -30.722,11.038 -19.332,0 -33.077,-9.4 -41.394,-28.144 -5.357,-12.173 -8.028,-27.175 -8.028,-45.049 0,-17.953 3.763,-33.105 11.418,-45.386 7.583,-12.28 19.605,-18.405 35.949,-18.405 12.567,0 22.521,3.827 29.86,11.497 7.296,7.641 12.381,18.097 15.195,31.411 h 29.271 c -3.361,-23.871 -11.749,-41.3 -25.178,-52.33 -13.415,-11.045 -30.578,-16.561 -51.49,-16.561 -23.54,0 -42.24,8.553 -56.229,25.694 -13.961,17.171 -20.97,38.55 -20.97,64.244 0,31.505 7.655,56 22.995,73.529 15.324,17.537 34.844,26.299 58.57,26.299 20.238,0 36.697,-4.939 49.408,-14.756"
   inkscape:connector-curvature="0"
   style="fill:#231f20" />
		<path
   id="path100"
   connector-curvature="0"
   d="m 9943.525,3964.623 h 30.104 v -49.508 h 28.883 v -25.163 h -28.883 v -116.093 c 0,-6.184 2.154,-10.385 6.42,-12.438 2.369,-1.242 6.319,-1.853 11.835,-1.853 1.45,0 3.059,0.058 4.739,0.137 1.681,0.107 3.634,0.337 5.889,0.682 v -24.732 c -3.461,-1.041 -7.038,-1.767 -10.801,-2.226 -3.72,-0.445 -7.756,-0.683 -12.107,-0.683 -14.019,0 -23.54,3.583 -28.567,10.801 -5.027,7.152 -7.512,16.495 -7.512,27.957 v 118.448 h -24.373 v 25.163 h 24.373 v 49.508"
   inkscape:connector-curvature="0"
   style="fill:#231f20" />
		<path
   id="path102"
   connector-curvature="0"
   d="m 10033.105,3982.375 h 30.118 v -34.263 h -30.118 v 34.263 z m 0,-68.1 h 30.118 v -178.621 h -30.118 v 178.621"
   inkscape:connector-curvature="0"
   style="fill:#231f20" />
		<path
   id="path104"
   connector-curvature="0"
   d="m 10239.41,3897.003 c 15.899,-15.36 23.856,-37.996 23.856,-67.806 0,-28.854 -6.995,-52.696 -21.027,-71.504 -13.989,-18.822 -35.691,-28.244 -65.092,-28.244 -24.56,0 -44.064,8.337 -58.513,24.977 -14.449,16.653 -21.645,39.001 -21.645,67.095 0,30.047 7.598,53.989 22.808,71.784 15.195,17.831 35.677,26.751 61.328,26.751 22.967,0 42.414,-7.684 58.285,-23.053 l 0,0 z m -18.599,-118.893 c 7.382,15.081 11.073,31.899 11.073,50.413 0,16.711 -2.672,30.326 -7.985,40.782 -8.431,16.503 -22.952,24.769 -43.591,24.769 -18.283,0 -31.583,-7.023 -39.928,-21.077 -8.287,-14.039 -12.453,-30.987 -12.453,-50.822 0,-19.081 4.166,-34.966 12.453,-47.677 8.345,-12.711 21.544,-19.045 39.598,-19.045 19.848,0 33.464,7.554 40.833,22.657"
   inkscape:connector-curvature="0"
   style="fill:#231f20" />
		<path
   id="path106"
   connector-curvature="0"
   d="m 10300.235,3915.115 h 28.481 v -25.458 c 8.488,10.521 17.508,18.068 27.059,22.687 9.537,4.596 20.137,6.894 31.771,6.894 25.522,0 42.801,-8.897 51.749,-26.671 4.926,-9.709 7.396,-23.655 7.396,-41.745 v -115.167 h -30.118 v 113.113 c 0,10.958 -1.595,19.777 -4.869,26.491 -5.43,11.16 -15.239,16.754 -29.443,16.754 -7.196,0 -13.099,-0.739 -17.724,-2.161 -8.373,-2.492 -15.713,-7.39 -22.032,-14.758 -5.041,-5.953 -8.345,-12.071 -9.839,-18.348 -1.536,-6.334 -2.326,-15.368 -2.326,-27.088 v -94.004 h -30.104 v 179.461"
   inkscape:connector-curvature="0"
   style="fill:#231f20" />
		<path
   id="path108"
   connector-curvature="0"
   d="m 7492.916,3528.171 h 29.314 v -23.21 c 6.032,8.015 12.64,14.219 19.82,18.657 10.184,6.606 22.19,9.91 35.964,9.91 20.424,0 37.76,-7.813 51.979,-23.454 14.233,-15.598 21.372,-37.91 21.372,-66.872 0,-39.188 -10.284,-67.146 -30.794,-83.929 -13.013,-10.643 -28.165,-15.936 -45.414,-15.936 -13.559,0 -24.948,2.916 -34.111,8.776 -5.387,3.303 -11.39,8.977 -18.011,17.026 v -91.023 h -30.104 v 250.054 h -0.015 z m 113.494,-141.026 c 9.336,11.878 14.003,29.637 14.003,53.285 0,14.42 -2.039,26.837 -6.219,37.206 -7.813,19.907 -22.133,29.875 -42.901,29.875 -20.897,0 -35.174,-10.528 -42.9,-31.591 -4.122,-11.274 -6.162,-25.552 -6.162,-42.908 0,-13.968 2.04,-25.889 6.162,-35.677 7.842,-18.687 22.118,-28.008 42.9,-28.008 14.09,10e-4 25.796,5.94 35.117,17.818"
   inkscape:connector-curvature="0"
   style="fill:#231f20" />
		<path
   id="path110"
   connector-curvature="0"
   d="m 7716.413,3528.961 v -119.059 c 0,-9.186 1.408,-16.654 4.237,-22.471 5.171,-10.715 14.865,-16.043 29.026,-16.043 20.353,0 34.212,9.336 41.565,28.107 4.021,10.032 6.004,23.856 6.004,41.379 v 88.086 h 30.133 v -179.433 h -28.481 l 0.345,26.528 c -3.806,-6.844 -8.603,-12.646 -14.262,-17.343 -11.289,-9.422 -24.919,-14.154 -40.977,-14.154 -25.063,0 -42.097,8.531 -51.174,25.637 -4.941,9.186 -7.354,21.407 -7.354,36.718 v 122.032 h 30.937"
   inkscape:connector-curvature="0"
   style="fill:#231f20" />
		<path
   id="path112"
   connector-curvature="0"
   d="m 7874.704,3596.236 h 29.285 v -88.639 c 6.606,8.553 14.506,15.045 23.713,19.562 9.191,4.503 19.159,6.765 29.917,6.765 22.449,0 40.604,-7.734 54.55,-23.159 13.975,-15.411 20.983,-38.147 20.983,-68.201 0,-28.495 -6.951,-52.144 -20.726,-70.966 -13.816,-18.851 -32.934,-28.259 -57.422,-28.259 -13.658,0 -25.234,3.312 -34.656,9.939 -5.616,3.928 -11.605,10.219 -18.025,18.88 v -22.629 h -27.619 v 246.707 l 0,0 z m 115.275,-206.585 c 8.101,13.042 12.193,30.227 12.193,51.569 0,18.994 -4.093,34.729 -12.193,47.188 -8.13,12.459 -20.094,18.707 -35.863,18.707 -13.774,0 -25.854,-5.142 -36.237,-15.36 -10.37,-10.212 -15.555,-27.053 -15.555,-50.535 0,-16.94 2.169,-30.715 6.42,-41.264 7.914,-19.886 22.794,-29.817 44.51,-29.817 16.372,0 28.595,6.499 36.725,19.512"
   inkscape:connector-curvature="0"
   style="fill:#231f20" />
		<path
   id="path114"
   connector-curvature="0"
   d="m 8068.887,3349.529 h 30.104 v 246.707 h -30.104 v -246.707 z"
   inkscape:connector-curvature="0"
   style="fill:#231f20" />
		<path
   id="path116"
   connector-curvature="0"
   d="m 8144.362,3596.236 h 30.075 v -34.27 h -30.075 v 34.27 z m 0,-68.065 h 30.075 v -178.643 h -30.075 v 178.643"
   inkscape:connector-curvature="0"
   style="fill:#231f20" />
		<path
   id="path118"
   connector-curvature="0"
   d="m 8321.669,3521.794 c 5.572,-4.036 10.93,-10.025 16.071,-17.867 v 25.034 h 28.481 v -250.844 h -30.161 v 91.526 c -5.013,-8.043 -11.965,-14.441 -20.826,-19.195 -8.891,-4.755 -19.95,-7.11 -33.192,-7.11 -19.116,0 -36.165,7.505 -51.245,22.5 -15.081,15.001 -22.607,37.881 -22.607,68.596 0,28.812 7.023,52.438 21.142,70.922 14.147,18.478 32.432,27.756 54.837,27.756 14.85,0 27.359,-3.778 37.5,-11.318 l 0,0 z m -75.591,-124.43 c 7.713,-18.715 21.486,-28.036 41.379,-28.036 20.97,0 35.403,9.846 43.347,29.559 4.309,10.851 6.521,24.747 6.521,41.673 0,15.591 -2.413,28.575 -7.196,39.002 -8.144,17.81 -22.506,26.722 -43.016,26.722 -13.084,0 -24.259,-5.716 -33.58,-17.063 -9.321,-11.375 -13.975,-28.927 -13.975,-52.668 0,-15.584 2.182,-28.633 6.52,-39.189"
   inkscape:connector-curvature="0"
   style="fill:#231f20" />
		<path
   id="path120"
   connector-curvature="0"
   d="m 8441.554,3528.961 v -119.059 c 0,-9.186 1.437,-16.654 4.237,-22.471 5.228,-10.715 14.922,-16.043 29.069,-16.043 20.338,0 34.227,9.336 41.565,28.107 4.007,10.032 6.019,23.856 6.019,41.379 v 88.086 h 30.104 v -179.433 h -28.481 l 0.374,26.528 c -3.835,-6.844 -8.604,-12.646 -14.276,-17.343 -11.274,-9.422 -24.919,-14.154 -40.991,-14.154 -25.063,0 -42.111,8.531 -51.159,25.637 -4.927,9.186 -7.368,21.407 -7.368,36.718 v 122.032 h 30.908"
   inkscape:connector-curvature="0"
   style="fill:#231f20" />
		<path
   id="path122"
   connector-curvature="0"
   d="m 8713.15,3524.15 c 11.922,-5.938 20.941,-13.673 27.188,-23.131 5.976,-9.027 9.954,-19.555 12.008,-31.569 1.752,-8.259 2.643,-21.414 2.643,-39.504 h -130.786 c 0.574,-18.298 4.84,-33.013 12.84,-44.036 7.986,-11.066 20.366,-16.582 37.171,-16.582 15.655,0 28.15,5.149 37.501,15.469 5.213,5.982 8.947,12.934 11.116,20.826 h 29.688 c -0.79,-6.571 -3.39,-13.86 -7.813,-21.91 -4.423,-8.058 -9.321,-14.629 -14.793,-19.72 -9.092,-8.891 -20.323,-14.888 -33.738,-18.004 -7.195,-1.76 -15.382,-2.65 -24.459,-2.65 -22.263,0 -41.106,8.122 -56.531,24.353 -15.44,16.229 -23.139,38.987 -23.139,68.251 0,28.812 7.756,52.193 23.311,70.197 15.555,17.975 35.893,26.973 61.013,26.973 12.668,0 24.934,-2.987 36.782,-8.947 v -0.016 z m 10.916,-70.24 c -1.235,13.056 -4.064,23.519 -8.503,31.36 -8.215,14.542 -21.917,21.846 -41.063,21.846 -13.816,0 -25.321,-5.041 -34.686,-15.037 -9.321,-10.04 -14.205,-22.736 -14.765,-38.169 h 99.017"
   inkscape:connector-curvature="0"
   style="fill:#231f20" />
		<path
   id="path124"
   connector-curvature="0"
   d="m 8987.219,3523.64 c 5.343,-3.325 11.36,-9.077 18.168,-17.357 v 89.953 h 28.884 v -246.707 h -27.261 v 24.812 c -6.951,-10.958 -15.238,-18.851 -24.775,-23.698 -9.522,-4.891 -20.424,-7.304 -32.718,-7.304 -19.82,0 -37.013,8.374 -51.519,25.171 -14.492,16.812 -21.774,39.174 -21.774,67.088 0,26.176 6.65,48.805 19.878,67.936 13.271,19.138 32.216,28.732 56.862,28.732 13.615,0 25.034,-2.881 34.255,-8.626 l 0,0 z m -67.146,-134.807 c 8.071,-13.006 20.983,-19.505 38.736,-19.505 13.816,0 25.163,5.997 34.067,18.054 8.876,12.058 13.329,29.351 13.329,51.907 0,22.771 -4.597,39.641 -13.73,50.563 -9.178,10.938 -20.554,16.431 -33.997,16.431 -14.994,0 -27.159,-5.838 -36.495,-17.508 -9.321,-11.67 -13.975,-28.826 -13.975,-51.49 0,-19.282 4.037,-35.461 12.065,-48.452"
   inkscape:connector-curvature="0"
   style="fill:#231f20" />
		<path
   id="path126"
   connector-curvature="0"
   d="m 9109.631,3528.961 v -119.059 c 0,-9.186 1.379,-16.654 4.194,-22.471 5.214,-10.715 14.908,-16.043 29.099,-16.043 20.309,0 34.169,9.336 41.536,28.107 4.008,10.032 6.019,23.856 6.019,41.379 v 88.086 h 30.118 v -179.433 h -28.481 l 0.345,26.528 c -3.849,-6.844 -8.589,-12.646 -14.29,-17.343 -11.246,-9.422 -24.905,-14.154 -40.948,-14.154 -25.034,0 -42.111,8.531 -51.174,25.637 -4.927,9.186 -7.396,21.407 -7.396,36.718 v 122.032 h 30.979"
   inkscape:connector-curvature="0"
   style="fill:#231f20" />
		<path
   id="path128"
   connector-curvature="0"
   d="m 9543.756,3577.809 c 16.977,-16.388 26.398,-35.009 28.28,-55.85 h -32.618 c -3.59,15.856 -10.814,28.388 -21.645,37.688 -10.814,9.25 -25.996,13.889 -45.529,13.889 -23.813,0 -43.016,-8.524 -57.68,-25.572 -14.708,-17.027 -22.019,-43.139 -22.019,-78.334 0,-28.826 6.607,-52.193 19.807,-70.133 13.228,-17.932 32.904,-26.865 59.088,-26.865 24.114,0 42.484,9.364 55.095,28.158 6.692,9.902 11.705,22.93 14.98,39.059 h 32.574 c -2.858,-25.96 -12.352,-47.69 -28.396,-65.242 -19.303,-21.142 -45.328,-31.677 -78.031,-31.677 -28.237,0 -51.936,8.661 -71.096,25.976 -25.249,22.915 -37.846,58.326 -37.846,106.197 0,36.33 9.494,66.11 28.481,89.378 20.495,25.264 48.818,37.939 84.883,37.939 30.781,0 54.666,-8.216 71.672,-24.611"
   inkscape:connector-curvature="0"
   style="fill:#231f20" />
		<path
   id="path130"
   connector-curvature="0"
   d="m 9709.501,3458.233 c 6.937,0.869 11.562,3.77 13.945,8.689 1.321,2.643 1.968,6.491 1.968,11.482 0,10.19 -3.691,17.595 -10.973,22.227 -7.296,4.553 -17.738,6.88 -31.311,6.88 -15.728,0 -26.873,-4.216 -33.437,-12.618 -3.691,-4.668 -6.075,-11.604 -7.181,-20.769 h -28.094 c 0.604,22.177 7.728,37.616 21.501,46.355 13.773,8.676 29.716,13.049 47.899,13.049 21.056,0 38.161,-4.144 51.36,-12.338 13.027,-8.215 19.548,-20.775 19.548,-37.694 v -103.002 c 0,-3.146 0.646,-5.623 1.91,-7.497 1.264,-1.932 3.964,-2.858 8.058,-2.858 1.336,0 2.829,0.087 4.481,0.237 1.666,0.165 3.446,0.46 5.357,0.769 v -22.334 c -4.683,-1.314 -8.244,-2.161 -10.672,-2.506 -2.471,-0.338 -5.803,-0.503 -10.04,-0.503 -10.355,0 -17.853,3.698 -22.534,11.066 -2.471,3.906 -4.18,9.479 -5.156,16.603 -6.162,-8.107 -15.01,-15.181 -26.499,-21.17 -11.533,-5.996 -24.188,-8.955 -38.032,-8.955 -16.661,0 -30.248,5.041 -40.819,15.159 -10.542,10.111 -15.827,22.779 -15.827,37.989 0,16.646 5.185,29.573 15.598,38.758 10.355,9.163 24.028,14.822 40.891,16.97 l 48.059,6.011 0,0 z m -63.612,-81.407 c 6.362,-5.021 13.902,-7.498 22.664,-7.498 10.614,0 20.897,2.456 30.865,7.34 16.805,8.129 25.178,21.429 25.178,39.936 v 24.244 c -3.72,-2.478 -8.417,-4.511 -14.233,-6.177 -5.788,-1.608 -11.49,-2.75 -17.034,-3.403 l -18.227,-2.169 c -10.915,-1.372 -19.131,-3.627 -24.703,-6.743 -9.407,-5.25 -14.09,-13.565 -14.09,-25.02 0,-8.683 3.231,-15.52 9.58,-20.51"
   inkscape:connector-curvature="0"
   style="fill:#231f20" />
		<path
   id="path132"
   connector-curvature="0"
   d="m 9804.467,3528.961 h 28.51 v -25.429 c 8.517,10.506 17.536,18.054 27.059,22.656 9.522,4.597 20.137,6.923 31.785,6.923 25.508,0 42.771,-8.904 51.748,-26.671 4.94,-9.717 7.396,-23.634 7.396,-41.738 v -115.174 h -30.118 v 113.113 c 0,10.923 -1.638,19.777 -4.912,26.478 -5.4,11.167 -15.21,16.732 -29.414,16.732 -7.239,0 -13.128,-0.732 -17.724,-2.162 -8.345,-2.463 -15.685,-7.389 -22.004,-14.757 -5.084,-5.939 -8.345,-12.036 -9.867,-18.349 -1.551,-6.327 -2.326,-15.304 -2.326,-27.066 v -93.989 h -30.133 v 179.433"
   inkscape:connector-curvature="0"
   style="fill:#231f20" />
		<path
   id="path134"
   connector-curvature="0"
   d="m 10091.273,3458.233 c 6.952,0.869 11.576,3.77 13.932,8.689 1.308,2.643 1.982,6.491 1.982,11.482 0,10.19 -3.619,17.595 -10.944,22.227 -7.311,4.553 -17.767,6.88 -31.325,6.88 -15.727,0 -26.887,-4.216 -33.465,-12.618 -3.677,-4.668 -6.075,-11.604 -7.195,-20.769 h -28.064 c 0.589,22.177 7.77,37.616 21.501,46.355 13.759,8.676 29.788,13.049 47.899,13.049 21.099,0 38.204,-4.144 51.317,-12.338 13.041,-8.215 19.576,-20.775 19.576,-37.694 v -103.002 c 0,-3.146 0.646,-5.623 1.91,-7.497 1.278,-1.932 3.964,-2.858 8.115,-2.858 1.292,0 2.801,0.087 4.48,0.237 1.638,0.165 3.419,0.46 5.314,0.769 v -22.334 c -4.668,-1.314 -8.229,-2.161 -10.671,-2.506 -2.471,-0.338 -5.817,-0.503 -10.025,-0.503 -10.37,0 -17.867,3.698 -22.535,11.066 -2.471,3.906 -4.18,9.479 -5.185,16.603 -6.162,-8.107 -14.98,-15.181 -26.471,-21.17 -11.505,-5.996 -24.201,-8.955 -38.032,-8.955 -16.689,0 -30.276,5.041 -40.818,15.159 -10.571,10.111 -15.842,22.779 -15.842,37.989 0,16.646 5.213,29.573 15.612,38.758 10.369,9.163 23.999,14.822 40.876,16.97 l 48.058,6.011 z m -63.626,-81.407 c 6.392,-5.021 13.946,-7.498 22.692,-7.498 10.614,0 20.912,2.456 30.852,7.34 16.79,8.129 25.163,21.429 25.163,39.936 v 24.244 c -3.634,-2.478 -8.388,-4.511 -14.205,-6.177 -5.802,-1.608 -11.446,-2.75 -17.033,-3.403 l -18.227,-2.169 c -10.916,-1.372 -19.188,-3.627 -24.732,-6.743 -9.407,-5.25 -14.075,-13.565 -14.075,-25.02 0,-8.683 3.217,-15.52 9.565,-20.51"
   inkscape:connector-curvature="0"
   style="fill:#231f20" />
		<path
   id="path136"
   connector-curvature="0"
   d="m 10284.911,3523.64 c 5.3,-3.325 11.346,-9.077 18.11,-17.357 v 89.953 h 28.854 v -246.707 h -27.188 v 24.812 c -6.966,-10.958 -15.21,-18.851 -24.761,-23.698 -9.508,-4.891 -20.438,-7.304 -32.761,-7.304 -19.835,0 -36.97,8.374 -51.476,25.171 -14.507,16.812 -21.774,39.174 -21.774,67.088 0,26.176 6.593,48.805 19.893,67.936 13.257,19.138 32.158,28.732 56.804,28.732 13.659,0 25.092,-2.881 34.299,-8.626 l 0,0 z m -67.16,-134.807 c 8.043,-13.006 20.97,-19.505 38.779,-19.505 13.788,0 25.135,5.997 33.996,18.054 8.891,12.058 13.343,29.351 13.343,51.907 0,22.771 -4.553,39.641 -13.745,50.563 -9.178,10.938 -20.495,16.431 -33.938,16.431 -15.038,0 -27.174,-5.838 -36.524,-17.508 -9.321,-11.67 -13.989,-28.826 -13.989,-51.49 0,-19.282 4.035,-35.461 12.078,-48.452"
   inkscape:connector-curvature="0"
   style="fill:#231f20" />
		<path
   id="path138"
   connector-curvature="0"
   d="m 10473.062,3458.233 c 6.922,0.869 11.576,3.77 13.917,8.689 1.321,2.643 1.996,6.491 1.996,11.482 0,10.19 -3.634,17.595 -10.958,22.227 -7.297,4.553 -17.767,6.88 -31.34,6.88 -15.727,0 -26.872,-4.216 -33.437,-12.618 -3.677,-4.668 -6.075,-11.604 -7.195,-20.769 h -28.064 c 0.561,22.177 7.756,37.616 21.501,46.355 13.759,8.676 29.745,13.049 47.87,13.049 21.085,0 38.233,-4.144 51.361,-12.338 13.026,-8.215 19.547,-20.775 19.547,-37.694 v -103.002 c 0,-3.146 0.646,-5.623 1.925,-7.497 1.278,-1.932 3.936,-2.858 8.086,-2.858 1.308,0 2.801,0.087 4.481,0.237 1.652,0.165 3.404,0.46 5.314,0.769 v -22.334 c -4.683,-1.314 -8.244,-2.161 -10.672,-2.506 -2.456,-0.338 -5.802,-0.503 -9.996,-0.503 -10.384,0 -17.882,3.698 -22.549,11.066 -2.456,3.906 -4.166,9.479 -5.186,16.603 -6.161,-8.107 -14.98,-15.181 -26.456,-21.17 -11.547,-5.996 -24.229,-8.955 -38.061,-8.955 -16.661,0 -30.248,5.041 -40.805,15.159 -10.527,10.111 -15.827,22.779 -15.827,37.989 0,16.646 5.214,29.573 15.598,38.758 10.384,9.163 24,14.822 40.861,16.97 l 48.089,6.011 z m -63.627,-81.407 c 6.377,-5.021 13.917,-7.498 22.636,-7.498 10.6,0 20.94,2.456 30.908,7.34 16.805,8.129 25.163,21.429 25.163,39.936 v 24.244 c -3.619,-2.478 -8.402,-4.511 -14.204,-6.177 -5.803,-1.608 -11.447,-2.75 -17.063,-3.403 l -18.226,-2.169 c -10.931,-1.372 -19.16,-3.627 -24.704,-6.743 -9.379,-5.25 -14.09,-13.565 -14.09,-25.02 0,-8.683 3.217,-15.52 9.58,-20.51"
   inkscape:connector-curvature="0"
   style="fill:#231f20" />
	</g>
</g>
</svg>